<?xml version="1.0" encoding="UTF-8"?>
<svg id="Layer_2" data-name="Layer 2" xmlns="http://www.w3.org/2000/svg" viewBox="0 0 636.5 297.85">
  <defs>
    <style>
      .cls-1 {
        fill: #000;
      }

      .cls-1, .cls-2 {
        stroke-width: 0px;
      }

      .cls-2 {
        fill: #fff;
      }
    </style>
  </defs>
  <g id="Layer_1-2" data-name="Layer 1">
    <path class="cls-1" d="M305.69,246c-1.17,3.09-2.64,6.09-3.46,9.27-2.78,10.84-5.34,21.73-8.08,33.01,5.25,4.19,6.07,4.1,10.56-1.55,1.55-1.94,2.93-4.39,4.99-5.45,2.03-1.04,5.2-1.5,7.2-.65,5.74,2.44,8.09,1.85,10.29-4.3,1.2-3.35,1.58-7.28,7.03-5.47-.42-5.4,1.56-8.2,7.03-8.16,3.21.02,3.76-2.41,2.92-4.97-.51-1.54-1.8-2.81-2.38-4.34-.93-2.45-2.63-5.28-2.09-7.48,1.5-6.14,3.89-12.08,6.19-18.01.32-.83,2.6-1.81,3.09-1.47,1.18.83,2.78,2.6,2.56,3.65-.89,4.3-1.96,8.68-3.81,12.63-1.43,3.04-1.76,5.35-.08,8.33,5.82,10.29,5.1,12.33-5.12,18.17-1.08.62-1.63,2.62-1.9,4.08-.7,3.72-1.71,6.78-6.46,6.65-.91-.03-2.11,1.23-2.76,2.18-4.96,7.35-9.81,8.49-18.07,3.78-2,2.53-4.04,5.12-6.1,7.7-3.59,4.49-6.53,5.29-11.74,3.01-2.73-1.2-5.39-2.56-8.01-3.99-3.25-1.77-2.5-4.04-.88-6.67,5.95-9.71,6.7-20.83,9.05-31.72-8.47-1.49-15.66.7-22.9,3.34-2.15.79-5.5.91-7.1-.27-1.15-.85-.73-4.48-.24-6.71.55-2.49,1.96-4.8,2.66-6.4-3.22-1.07-7.22-1.22-8.61-3.2-1.43-2.03-.32-5.86-.32-9.46-3.9,2.8-7.37,5.56-11.11,7.91-5.79,3.65-8.14,2.91-11.49-3.08-8.86,3.81-12.78,3.53-17.1-1.03-2.89-3.06-3.51-6.28-1.19-9.91.63-.98,1.11-2.12,1.94-2.89,8.36-7.73,16.45-15.8,25.28-22.96,6.68-5.42,15.06-3.3,20.37,4.47,4.69-3.55,9.35-7.09,13.66-10.36-10.11-7.8-19.68-15.35-29.47-22.6-1.84-1.36-4.5-1.93-6.86-2.19-3.46-.38-6.99-.08-10.49-.2-4.36-.16-8.36-1.19-10.08-5.83-1.3-3.5.83-10.32,4.07-12.68,5.78-4.2,12.35-4.74,18.95-2.78,4.71,1.4,7.7,7.68,6.33,13.26-.65,2.64-.07,3.85,1.87,5.27,9.36,6.83,18.67,13.72,27.94,20.66,2.61,1.95,4.56,1.61,6.94-.58,3.65-3.36,7.68-6.3,11.69-9.53-6.16-5.65-16.4-7.82-14.23-19.71-6.65,2.28-13.41-3.25-20.19,2.08-3.69,2.9-10.94-3.08-11.31-8.61-.57-8.45,7.09-15.23,15.4-13.64.65.12,1.32.13,1.98.2,10.58,1.09,12.06,2.65,12.25,13.14,3.39,1.41,6.13.79,9.47-1.24,7.55-4.57,16.47-2.75,22.5,3.75,1.24,1.33,2.32,2.8,4,4.83,5.54-7.9,14.23-7.31,22.42-8.4-4.18-5.31-8.23-10.46-12.87-16.35,6.37-.96,10.37-.24,12.61,5.76,4.02-8.45,7.63-16.03,11.54-24.25h-14.97c.62,7.75-2.6,13.47-9.12,17.92-2.29,1.56-4.08,5.11-4.44,7.96-.64,5.12-3.67,6.37-7.58,5.56-13.52-2.79-27.35-4.4-40.17-10.11-13.35-5.96-26.34-4.8-39.89.67-9,3.63-15.26,9.77-21.37,16.46-5.02,5.5-9.37,6.63-16.21,3.47-1.18-.54-2.89-.68-4.11-.28-5.8,1.9-11.68,3.63-15.25,9.42-.79,1.28-3.78,2.55-4.97,2.03-10.85-4.74-18.24,2.1-26.01,7.45-5.05,3.48-9.4,8.24-14.81,10.86-5.17,2.5-9.97,4.33-11.4,10.62-.24,1.07-2.21,2.38-3.48,2.49-9.99.87-13.35,8.85-17.94,15.85-7.73,11.8-14.02,24.74-26.18,33.18-3.86,2.68-5.81,1.97-7.71-1.78-.97-1.91-2.2-3.68-3.31-5.5-6.44,3.06-8.84,2.28-12.54-3.86-6.48-10.78-13.17-21.44-19.36-32.39-1.27-2.26-.63-5.56-1.02-8.36-.45-3.21-.82-6.46-1.7-9.57-1.08-3.83-2.42-7.35,2.36-9.84.67-.35.96-2.99.38-3.93-3.43-5.63-.54-13.14,5.81-14.51,6.25-1.35,7.96-4.36,7.07-10.61-.32-2.27.27-5.83,1.8-6.98,4.03-3.01,8.85-4.95,13.26-7.47,1.23-.7,2.82-1.8,3.1-2.99,2.36-9.94,9.58-15.74,17.59-20.71,5.19-3.22,10.57-6.37,16.27-8.46,4.7-1.72,9.98-2.47,15.01-2.47,5.1,0,5.12,5.78,7.68,8.76.86,1,1.91,2.8,2.72,2.72,7.82-.76,15.61-1.84,23.86-2.88-1.7-7.16-12.96-11.99-2.81-19.39-5.55-3.58-5.58-5.49-.58-10,5.43-4.9,10.22-10.67,16.15-14.84,9.84-6.91,19.92-13.4,33.11-12.72,5.91.31,11.97-2.15,17.95-3.37.48-.1.94-.48,1.41-.48,19.72.25,39.35-4.5,59.13-1.16,1.93.33,3.76,1.19,5.67,1.69,3.62.94,7.33,1.61,10.89,2.73,2.56.8,4.92,2.21,7.43,3.22,1.46.59,3,1.09,4.55,1.31,2.74.39,5.52.53,8.79.82-1.39-6.64-3.54-13.13-8.81-17.91-8.62-7.83-18.55-14.09-30.26-14.85-8.7-.56-17.88.52-26.32,2.82-17.52,4.78-34.63,11.03-52.02,16.31-5.96,1.81-12.29,3.76-18.37,3.53-10.09-.38-17.47,4.08-24.5,10.18-1.76,1.52-3.65,2.92-5.29,4.57-5.07,5.08-11.36,6.4-18.21,7.92-6.59,1.47-12.48,6.25-18.59,9.71-4.71,2.67-9,6.42-14.01,8.17-9.94,3.49-19,8.27-27.79,14.01-13.56,8.85-25.85,19.08-37.74,30.05-6.47,5.97-14.68,10.09-22.25,14.8-1.06.66-3.87.47-4.31-.26-.73-1.21-.75-3.48-.08-4.79,2.35-4.57,5.45-8.76,7.66-13.38,4.28-8.92,7.79-18.22,12.31-27.01,4.08-7.93,9.16-15.33,13.64-23.06,3.15-5.44,6.26-10.92,8.95-16.59,3.41-7.21,5.88-8.68,13.92-7.04,4.81.98,4.46-3.16,5.22-5.62,2.72-8.84,8.15-14.93,17.3-16.62,4.14-.77,6.87-2.65,9.25-5.77,2.31-3.02,4.99-3.86,8.66-1.81,4.37,2.44,6.98-1.07,8.88-4,2.49-3.84,4.72-7.31,10.08-6.24.4.08.98-.24,1.35-.54,6.6-5.37,14.08-5.26,22.13-4.64,5.06.39,10.38-1.58,15.49-2.89,11.16-2.85,22.08-2.77,33.38-.02,10.54,2.56,21.45,3.69,32.24,5.14,16.05,2.16,32.18,3.76,48.19,6.13,17.45,2.58,42.35,14.52,46.33,38.3.77,4.63,2.76,9.07,4.33,14.03,8.71-3.19,17.26-5.76,25.33-9.4,17.04-7.68,34.06-15.47,50.61-24.11,8.8-4.6,16.67-11.01,24.89-16.71,11.81-8.19,24.19-15.16,38.72-16.92,3.12-.38,6.47.96,9.68,1.68,10.38,2.3,20.09,5.16,27.91,13.67,5.18,5.63,12.95,8.88,19.54,13.22,1.25.82,2.8,1.48,3.59,2.63,6.41,9.27,15.92,7.5,25.01,7.18,2.99-.1,5.97-.64,8.94-.54,1.5.05,4.05.82,4.28,1.73,1.19,4.78,5.22,6.09,8.67,8.31,1.41.91,2.16,2.85,3.17,4.35,1.55,2.31,2.68,5.06,4.67,6.89,8.71,8.02,18.04,15.4,26.39,23.78,5.09,5.11,8.63,11.74,13.19,17.42,5.62,7,11.81,13.53,17.33,20.61,5.15,6.61,5.67,14.45,3.77,22.3-2.09,8.63-6.37,10.65-17.74,8.53-3.1,6.61-6.5,13.35-9.4,20.31-1.23,2.95-2.78,3.27-4.76,1.51-3.07-2.72-6.06-5.61-8.65-8.78-5.34-6.53-10.4-13.29-15.56-19.97-2.88-3.73-7.05-4.55-11.35-5.16-11.64-1.66-23.25-3.55-34.92-4.99-7.52-.92-12.11-5.97-16.63-11.01-4.11-4.59-8.97-8.94-9.24-16.12-34.47-2.45-67.63,3.2-100.12,13.6-.07.56-.13,1.13-.2,1.69,6.04,2.35,12.08,4.7,18.2,7.08.37-1.55.54-3.43,1.25-5.06,1.12-2.56,2.05-5.72,4.09-7.24,2.39-1.78,12.49,2.12,14.41,4.69,2.29,3.06,2.17,6.07.06,9.18-2.49,3.67-4.89,7.4-7.33,11.11,14.36,9.51,16.4,24.05,15.54,39.73-.06,1.06-.25,2.26.14,3.17,3.54,8.14,1.38,13.67-6.74,17.03-1.16.48-2.52.95-3.28,1.85-6.03,7.15-17.11,8.74-25.06,3.87-2.36-1.45-5.41-2.37-8.17-2.45-4.25-.11-6.81-.97-5.34-6-1.93.37-3.53.69-5.13.99-3.29.61-5.36,2.22-6.29,5.74-.77,2.89-2.55,5.51-4.26,9.04-4.74-4.77-.48-8.85-1.23-12.99-3.26-.31-6.68-.63-11.69-1.1,2.5,3.79,4.53,6.41,6.04,9.3.79,1.51,1.41,3.82.81,5.19-1.73,3.92-4.12,7.55-6.35,11.46,7.59.77,6.42,6.7,6.74,11.92,6.43,1.1,12.67,3.16,18.64-1.46,3.06-2.36,2.92-3.89-.29-5.91-2.34-1.48-4.3-3.55-6.44-5.36,2.23-1.64,4.44-3.32,6.71-4.92.94-.66,2.16-.99,2.99-1.76,1.26-1.18,2.28-2.61,3.4-3.94-1.51-1.09-2.9-2.42-4.54-3.22-2.87-1.4-5.89-2.47-9.96-4.13,7.28-3.81,15.63-2.33,19.63,2.34,3.12,3.64,1.95,7.26-.59,10.42-1.73,2.15-4.18,3.72-6.5,5.71,2.56,2.94,6.61,5.74,4.05,10.41-3.35,6.12-9.02,9.25-15.83,9.77-3.6.27-7.29-.41-10.92-.85-6.03-.73-7-2.25-7.5-11.09q-8.13-2.8-1.35-18.13c-4.65-.61-9.33-1.22-14.49-1.9-2.66,4.89-7.4,8.86-14.68,9.35-1.72.12-3.52.77-5.07,1.58-3.84,2.01-5.53,1.35-7.14-2.71-.51-1.29-1.81-2.28-2.75-3.4-.41.28-.82.57-1.23.85,1,6.46,1.99,12.93,2.99,19.39-.33.07-.67.15-1,.22-.51-1.8-1-3.61-1.52-5.41-2.34-8.07-4.56-16.17-7.08-24.19-1.65-5.24.02-9.13,4.24-12.12,3.35-2.38,6.86-4.54,10.87-7.18-4.51-5.66-8.71-10.94-14.02-17.62-1.17,3.75-2.07,6.36-2.81,9.02-1.66,6.02-3.24,12.07-5.01,18.71,3.66,4.89,3.2,7.78-2.84,11.61-4.62,2.94-9.38,4.82-15.12,5.59-4.99.67-9.63,4.54-14.22,7.35-2.47,1.51-4.49,3.75-6.71,5.66-.28-.3-.55-.6-.83-.89,4.94-4.7,9.89-9.39,14.87-14.12-3.59-5.23-3.34-6.61,3.19-15.03-2.34-1.52-4.55-3.24-7.02-4.41-1.01-.48-2.9-.18-3.85.51-4.84,3.51-9.88,6.87-14.09,11.05-3.31,3.27-5.52,7.65-8.53,11.98,7.64,4.15,4.83,9.94,4.78,15.11,8.87.37,11.97-.1,6.9,14.43,9.75-3.4,19.4-4.24,29.29-1.55,1.6-7.47,3.27-15.29,5.15-24.08-7.28,4.1-13.79,7.76-20.3,11.43-.34-.5-.67-1.01-1.01-1.51,6.72-4.49,13.43-8.99,20.14-13.49.83-.56,1.87-.98,2.4-1.75,2.82-4.11,4.9-4.08,7.67.29,6.39,10.11,6.92,21.27,5.75,32.71-.2,1.94-.75,3.84-1.66,5.8-1.03-11.3-.18-22.92-6.34-33.69-2.44,6.85-5.24,12.6-2.92,20.37,2.14,7.2,1.04,15.39,1.19,23.14.02,1.31-.89,2.64-1.88,5.36-1.03-10.17-1.9-18.84-2.78-27.51l-1.68-.26ZM189.55,140.65c-.2-.83-.39-1.65-.59-2.48-10.49-.53-20.98-1.59-31.46-1.43-10.38.16-20.74,1.57-31.11,2.43,2.99-1.45,6.08-2.7,9.28-3.26,8.47-1.48,17-3.71,25.51-3.71,10.37,0,20.82,1.51,31.05,3.39,2.73.5,4.81,1.29,7.46.06,4.49-2.08,9.07-3.96,13.69-5.73,7.33-2.8,14.72-5.43,22.08-8.13-5.46-1.16-10.67-1.59-15.86-2.18-3.27-.37-6.5-1.06-9.77-1.48-7.8-.99-15.61-1.85-23.4-2.85-10.74-1.37-21.46-3.73-32.22-3.92-7.83-.14-15.74,2.45-23.57,4.01-11.49,2.29-16.37-.95-16.32-10.68-12.04-1.78-21.26,5.2-30.63,10.74-4.86,2.87-9.82,7.75-11.77,12.86-2.5,6.52-5.35,10.25-12.33,11.77-3.12.68-7.98,2.16-7.09,7.85,1.29,8.21-3.49,13.86-9.61,15.81-1.94.62-3.66,1.94-5.54,2.98,4.61,6.96,4.56,8.47.26,14.08-.56.74-1.44,1.97-1.18,2.49,2.69,5.41,3.24,10.94,1.81,16.79-.22.91.64,2.2,1.23,3.18,6.62,10.85,13.28,21.68,19.72,32.17,2.27-.96,4.06-1.74,5.87-2.48,1.07-.44,2.53-.52,3.18-1.29,2.44-2.91,4.52-6.13,6.93-9.06,5.02-6.1,10.15-12.12,15.3-18.11,2.05-2.39,4.28-4.65,6.42-6.96-.22-.38-.44-.77-.65-1.15-10.78,3.03-21.57,6.06-32.35,9.09,10.05-4.67,20.42-8.35,30.85-11.83,2.41-.8,5.61-.12,7.5-1.46,7.79-5.53,15.22-11.57,22.77-17.43-.15-.61-.29-1.22-.44-1.82-9.11.91-18.34,1.18-27.3,2.89-9,1.72-17.73,4.89-26.57,7.42,14.4-7.23,29.17-13.63,45.55-13.72,11.02-.06,21.24-1.22,29.93-8.84,1.87-1.64,4.75-2.14,7.16-3.17.26.49.53.97.79,1.46-9.36,6.91-18.71,13.83-28.07,20.74.18.47.36.94.53,1.41,2.37-.72,5.27-.81,7.02-2.27,9.69-8.08,19.1-16.49,28.66-24.82-10.56-4.4-21.67-5.44-32.75-4.11-10.8,1.29-21.45,3.96-32.16,6.02,4.69-2.24,9.51-4.28,14.51-5.72,18.32-5.27,36.64-9.18,54.5,1.7.55.33,1.68.14,2.33-.2,6.97-3.63,13.9-7.34,20.84-11.03ZM45.43,84.56c9.34-5.81,19.58-7.71,30.28-7.71,3.82,0,8.73-1.31,11.23.55,4.75,3.53,7.81.6,10.79-1.31,8.51-5.48,16.65-11.54,25.29-17.63-17.17-5.7-32.9,4.06-49.48,5.67,15.03-5.78,29.58-13.41,46.54-11.3,4.07.51,6.91,2.1,5.74,7.37,13.33-.47,18.35-12.81,28.19-17.76-18.9-2.82-35.82,4.51-53.35,8.79,3.91-2.14,7.86-4.21,12.02-5.71,12.29-4.42,24.47-9.62,37.94-8.6,3.31.25,6.62,2.81,9.75,2.5,9.64-.95,19.32-2.25,28.75-4.42,9.63-2.21,19.04-5.45,28.44-8.56,7.57-2.5,14.98-5.45,22.18-8.1-7.39-1.22-14.88-2.49-22.38-3.69-10.46-1.67-21.05-2.75-31.35-5.1-9.46-2.16-18.56-2.3-27.98-.12-6.88,1.59-13.96,2.68-21.01,3.16-5.63.38-11.24-.31-15.89,3.95-.99.91-2.81,1.41-4.18,1.29-2.8-.25-3.97,1.23-5.32,3.3-3.88,5.95-9.76,10.28-18.25,6.65-3.33,5.04-7.8,7.87-14.24,8.48-2.88.28-6.04,3.34-8.01,5.95-2.01,2.65-2.74,6.28-3.99,9.49-2.36,6.04-6.43,7.82-12.58,6.08-1.39-.39-4.07.4-4.77,1.52-5.15,8.25-10.35,16.52-14.76,25.17-7.56,14.85-14.55,29.99-21.74,45.03-.15.32.17.87.66,2.99,21.09-19.53,42.09-37.82,68.2-50.59-13.25-2.75-25.01-.39-36.73,2.64ZM515.65,101.26c9.7.57,18.11,1.08,26.52,1.52,1.13.06,2.51.14,3.39-.41,3.08-1.92,5.73-4.8,9.02-6.06,9.72-3.71,19.68-6.81,29.54-10.15.08.28.17.55.25.83-11.48,5.03-22.96,10.06-34.44,15.09.23.71.46,1.42.69,2.14,4.13-.68,8.3-1.19,12.39-2.06,10.55-2.25,21.28,3.73,20.25,15.91-.27,3.14-.59,6.46.11,9.46,1.36,5.91-.59,12.67,4.36,17.71,2.09,2.12,3.92,4.52,6.19,6.42.9.75,2.83,1.01,3.98.6,4.94-1.75,9.84-3.68,14.61-5.85,2.76-1.25,4.96-2.41,8.34-1,2.6,1.08,6.85,2.33,8.3-2.41,2-6.53,1.51-12.98-2.67-18.47-4.62-6.07-9.84-11.69-14.74-17.55-7.29-8.71-11.98-19.62-22.24-25.86-3.08-1.87-6-4.34-8.27-7.13-3.42-4.18-7.92-6.08-12.81-6.97-4.87-.88-9.9-1.21-14.86-1.21-9.09,0-18.18.31-27.25.71-5.3.23-10.79.13-15.84,1.5-25.47,6.95-49.43,16.84-67.45,37.64,6.74-1.19,13.37-2.33,19.99-3.56.92-.17,1.9-.59,2.63-1.18,4.08-3.29,7.72-7.3,12.19-9.91,13.7-8.01,27.99-14.73,44.27-15.76-18.46,5.5-35.45,13.79-51.54,26.26,4.5-.3,7.76-.68,11.02-.71,7.83-.08,15.66.21,23.48-.12,2.54-.11,5.39-1.18,7.46-2.69,12.13-8.81,22.69-14.39,39.1-16.12-12.52,4.24-24.73,9.06-35.95,19.38ZM321.42,72.74c2.07,1.93,5.49,4.55,8.22,7.75,6.25,7.34,2.43,21.12-7.09,23.21-6.78,1.49-9.58,6.8-14.99,9.86,1.72,1.85,2.84,3.05,4.01,4.31,9.82-14.49,17.08-16.59,27.61-6.94-.43-2.27-.27-3.64-.89-4.32-7.64-8.61-4.83-19.33,6.04-23.26,1.37-.5,2.33-2.16,3.46-3.31,4.75-4.79,8.9-10.45,14.37-14.19,8.36-5.72,17.61-10.13,26.5-15.06,1.29-.72,2.63-1.47,4.04-1.86,12.8-3.55,25.2-2.84,37.2,3.31,4.22,2.16,8.65,5,13.14,5.31,12.75.9,24.03,6.02,35.33,10.99,3.17,1.39,5.36,2.05,8.5.57,14.82-6.97,30.56-9.49,46.84-9.34,10.65.1,21.31.02,33.63.02-2.62-3.24-4.21-7.15-6.55-7.68-4.59-1.02-7.54-2.66-8.04-7.34-6.42,0-12.46.47-18.4-.13-6.16-.62-13.16.39-16.87-5.78-5.2,2.05-9.83,4.34-14.72,5.69-7.63,2.11-15.13,2.57-20.76-4.87-1.59-2.09-3.67-3.91-5.84-5.42-1.09-.76-3.19-1.18-4.28-.63-11.53,5.76-24.23,4.67-36.42,6.55-12.4,1.91-24.79,3.81-37.17,5.81-3.09.5-6.85,2.84-9.03,1.77-5.34-2.63-8.87.48-12.9,2.29-11.29,5.08-22.41,10.55-33.81,15.35-7.3,3.07-14.98,5.21-21.15,7.31ZM255.61,51.09c-.19-.43-.38-.85-.57-1.28-3.81,0-7.64-.22-11.43.05-6.6.47-13.2,1.11-19.78,1.92-13.43,1.66-27.09,2.42-40.19,5.53-13.12,3.11-23.84,11.27-31.14,20.78.6,3.83,1.98,6.83,1.18,9.03-1,2.73-3.81,4.8-6.09,7.45,3.41,4.93,6.06,10.82,15.03,10.75,8.06-.06,16.11,2.97,24.23,4.17,1.99.29,4.92-.63,6.28-2.06,5.46-5.78,10.57-11.89,15.62-18.04,6.42-7.83,12.42-15.98,21.48-21.21,6.45-3.73,12.59-8,18.81-12.12,2.28-1.51,4.38-3.3,6.57-4.96ZM368.13,160.04c-.11.39-.21.78-.32,1.18,10.33,3.68,18.6,12.34,30.62,12.02.66-.02,1.31.93,2.01,1.36,1.34.83,2.62,1.84,4.07,2.37,6.36,2.31,12.84,4.31,19.12,6.81,1.51.6,2.43,2.69,3.62,4.09-1.85.6-3.66,1.39-5.56,1.72-.84.15-1.83-.63-2.77-.95-6.31-2.12-12.63-4.22-19.12-6.39-1.01,4.68-1.83,8.42-2.7,12.44,7.1.29,13.77-2.98,21.35,1.35-2.98,1.07-4.62,1.65-6.25,2.24,7.98,1.77,14.47,10.81,22.86,5.09-.27-2.54-.48-4.57-.69-6.59,2.04-.14,4.08-.27,6.12-.41,1.6-.1,3.58.35,4.7-.44,1.58-1.12,2.52-3.14,3.74-4.78-1.81-.81-3.57-1.78-5.45-2.37-.85-.27-1.98.47-2.91.31-1.74-.3-3.43-.93-5.13-1.42,1.07-1.44,1.85-3.57,3.27-4.16,2.76-1.14,5.87-1.42,8.67-2.02,0-2.49.25-5.32-.04-8.1-1.24-11.64-4.2-22.22-16.88-26.76-1.43-.51-3.04-2.29-3.3-3.71-.18-.99,1.56-2.86,2.85-3.51,5.49-2.75,7.59-7.93,10.5-13.01-3.2-1.09-7.42-4.29-7.86.66-.93,10.47-9.81,13.84-16.11,19.79,1.97-3.85,3.94-7.69,5.45-10.64-6.64-3.18-12.97-6.23-19.31-9.23-.97-.46-2.3-1.23-3.05-.9-6.89,3.02-13.69,6.25-21.58,9.9,7.61,6.42,13.91,11.72,20.48,17.26-.21.93-.6,2.62-.97,4.22,6.74,3.1,9.61,1.65,11.43-5.53-4.87-1.66-9.75-3.33-15.11-5.16,7.24-5.96,19.02-2.53,22.62,5.62,3.33-.22,6.62-.73,9.88-.57,4.68.24,10.05,4.95,9.81,8.42-.39,5.65-7.28,13.21-13.58,9.63-3.91-2.22-7.72-4.61-12.13-7.25-6.96,4-12.51,4.8-16.28-.1-3.38-4.39-7.1-3.98-11.25-3.74-4.93.27-9.84.82-14.76,1.25ZM257.12,59.29c-24.82,10.81-42.75,29.22-56.96,51.61.32.09,1.21.48,2.13.56,11.81,1.04,23.61,2.15,35.44,2.89,1.34.08,3.47-1.69,4.1-3.11,2.91-6.49,6.47-12.32,12.6-16.31.83-.54,1.66-2.24,1.41-3.1-3.15-11.1-3.73-22.08,1.28-32.54ZM451.28,88.05c-4.27-3.76-7.85-7.79-12.23-10.6-6.91-4.44-14.41-7.96-21.55-12.06-7.71-4.44-15.45-8.01-24.79-5.73-7.99,1.95-15.57,4.6-22.58,9.15,3.54,2.86,6.49,5.56,9.76,7.79,2.07,1.42,4.63,3.06,6.94,3.01,6.75-.14,12.25,1.87,16.21,7.14,20.49-3.04,30.39-1.93,38.03,12.54,3.59-3.96,7-7.7,10.21-11.24ZM321.2,132.68c-1.73-1.57-3.49-3.3-5.39-4.86-4.98-4.09-10.74-7.48-14.85-12.3-5.22-6.11-11.48-10.11-18.34-13.89-3.48-1.91-5.84-5.88-8.93-9.15-2.69.49-6.24,1.14-9.3,1.69-5.21,7.33-15.99,10.23-16.45,20.2,8.5,2.41,16.8,4.86,25.16,7.08,4.88,1.3,9.95,1.93,14.76,3.41,5.34,1.64,10.53,3.79,15.68,5.97,2.24.95,4.55,2.18,6.25,3.86,5.82,5.74,7.61,5.58,11.41-2.02ZM576.35,134.38c0-6.77.41-13.42-.24-19.96-.21-2.05-2.97-4.45-5.14-5.53-1.86-.93-4.55-.24-6.87-.2-8.94.13-17.88.53-26.81.35-7.76-.16-15.51-.96-24.29-1.55,4.29,8.82,9.38,16.14,17.49,19.8,5.53,2.5,12.19,2.64,18.38,3.53,9.32,1.35,18.69,2.43,27.48,3.55ZM291.13,99.04c4.63-3.66,8.74-6.84,12.76-10.12.65-.53,1.41-1.49,1.36-2.21-.48-6.85,3.05-10.9,9.21-13.19-.65-1.53-1.4-2.81-1.75-4.18-1.72-6.71-3.45-9.33-10.08-9.19-10.02.21-18.6-3.14-27.2-7.45-1.41-.71-3.89-.55-5.32.23-6.72,3.67-7.67,10.68-10.13,17.77,6.17-4.15,14.29-4.21,18.77-.7,5.22,4.09,6.42,9.38,3.95,16.88-.35,1.05-.36,2.24-.38,3.37-.15,6.42,5.51,6.9,8.81,8.8ZM425.96,22.02c2.64-.79,5.53-1.13,7.88-2.44,7.01-3.9,14.53-3.77,22.18-3.93,6.54-.14,11.1,2.54,14.57,7.75.72,1.08,1.55,2.86,2.43,2.92,7.24.51,10.3,6.73,15.08,10.58.97.78,2.11,1.7,3.26,1.84,7.45.9,14.36-.55,20.83-5.29-1.77-1.21-3.27-2.17-4.71-3.22-6.24-4.52-12.58-8.91-18.68-13.62-9.59-7.4-20.73-10.38-32.33-9.41-11.54.97-21.19,7.64-30.5,14.81ZM387.27,111.98c12.96-5.05,25.23-9.96,40.32-7.53-1.98,1.24-2.61,1.82-3.35,2.07-12.18,4.11-24.33,8.29-36.58,12.17-3.29,1.04-4.37,2.84-4.22,6.71,1.85-.58,3.38-.88,4.76-1.52,5.53-2.53,10.89-5.46,16.54-7.69,7.04-2.78,14.24-5.17,21.46-7.41,5.21-1.62,9.08-7.57,6.39-10.98-1.65-2.1-4.19-4.59-6.55-4.84-6.83-.71-13.77-.53-20.66-.31-1.43.05-3.16,1.48-4.14,2.74-4.06,5.27-9.07,9.01-15.72,10.68.54,1.84,1.08,3.67,1.73,5.9ZM393.66,180.33c-4.45-1.84-8.31-2.99-11.72-4.94-7.28-4.16-14.29-8.78-21.48-13.09-1.06-.63-2.53-.58-3.81-.84-.26.43-.51.86-.77,1.29,4.76,7.93,9.34,15.97,14.39,23.72,1.43,2.19,4.03,3.47,2.37,6.75-.22.44,1.23,2.5,1.96,2.53,5.1.23,10.22.12,15.43.12,1.26-5.39,2.42-10.34,3.63-15.54ZM257.76,204.19c-6.73-1.36-15.36,2.99-18.22,9.12-.52,1.12-1.46,2.13-2.41,2.95-3.96,3.43-8.13,6.62-11.91,10.23-.96.91-1.39,4.18-.98,4.41,1.7.94,3.83,1.53,5.77,1.45,1.28-.05,2.42-1.68,3.77-2.25,2.17-.91,4.9-2.63,6.59-1.97,1.8.71,2.67,3.79,4.12,6.11,4.05-3.1,10.29-4.99,11.54-11.28,1.19-6.01,1.18-12.25,1.73-18.77ZM355.81,83.75c2.35,2.56,5.08,5.41,7.67,8.39,4.88,5.6,4.59,13.56.13,18.57-2.55,2.87-4.11,6.62-6.66,10.87,8.04-5.28,14.85-9.77,22.02-14.48-1.98-6.96-5.9-14.97.82-22.72-5.27-4.03-9.99-7.64-14.45-11.04-3.31,3.61-6.39,6.98-9.54,10.41ZM474.3,74.66c0-.54.01-1.07.02-1.61-7.79-2.5-15.43-5.83-23.41-7.27-7.92-1.43-15.27-3.72-22.56-7.03-6.31-2.86-13.18-4.49-19.81-6.67-.27.62-.54,1.24-.81,1.86,18.36,7.09,35.5,16.09,48.58,30.77,6.45-3.6,12.22-6.82,17.99-10.05ZM363.34,201.45c-.34-.35-.68-.71-1.03-1.06,1.51-2.71,3.01-5.41,4.23-7.6-5.37-8.98-10.67-17.85-15.92-26.62-1.58,7.85-3.2,15.95-4.91,24.46,7.58,3.34,15.33,7.62,15.89,17.97,4.84.6,9.41,1.17,13.97,1.74.1-.44.2-.88.3-1.32-2.66-3.35-5.32-6.7-7.87-9.91-1.6.8-3.13,1.56-4.67,2.33ZM403.3,37.81c20.85-4.99,42.08-3,62.71-8.3-1.4-5.15-4.39-7.44-8.73-7.71-6.64-.41-13.13-.08-19.44,2.83-4.29,1.98-9.04,3.38-13.72,4.02-7.65,1.05-14.92,2.47-20.82,9.15ZM348.96,150.68c4.28-2.71,8.41-4.87,12.02-7.69,7.32-5.72,15.22-11.1,16.38-21.63.26-2.39,1.37-4.7,2.08-7.04-13.14,8.35-25.38,17.12-34.26,30.09,1.04,1.73,2.22,3.68,3.78,6.27ZM245.03,121.33c.05.53.1,1.07.15,1.6-1.8,1.29-3.44,3.01-5.44,3.81-14.24,5.68-28.74,10.75-42.78,16.88-9.64,4.21-18.68,9.81-28.93,15.29,3.76,0,7.09.91,9.54-.18,5.64-2.52,10.63-6.5,16.31-8.87,2.63-1.1,6.56-.59,9.33.56,3.59,1.5,6.11.92,8.22-1.8,12.21-15.79,28.96-22.39,48.36-25.22l-14.75-2.07ZM344.86,194.71c-1.72,1.05-2.3,1.36-2.83,1.73-3.56,2.41-7.12,4.81-10.65,7.26-2.95,2.05-3.48,9.21-.42,9.81,5.21,1.03,8.49,6.85,15.15,4.64,5.79-1.92,10.57-5.09,8.69-10.76-1.6-4.82-6.52-8.53-9.93-12.68ZM326.86,165.43c-.67-3.14-3.48-2.81-6.14-2.73-3.64.12-6.01-.54-8.19-4.53-3.62-6.65-11.61-7.16-17.59-2.68-3.98,2.97-3.81,6.38.13,9.4,3.01,2.31,6.29,4.25,9.45,6.36.08-.52.16-1.04.25-1.56,4.57.57,9.13,1.14,14.24,1.78,1.83-1.41,4.58-3.53,7.84-6.05ZM74.84,243.32c7.78-11.41,15.36-21.86,22.22-32.77,5.37-8.54,10.84-16.48,21.98-18.97.68-2.07,1.52-4.67,2.77-8.48-21.04,15.34-38.77,32.01-51.16,54.3.8,1.13,2.01,2.84,4.19,5.92ZM312.95,199.62c2.96-17.95,2.68-20.74-1.97-24.26-6.6,5.65-13.12,11.23-19.93,17.07,3.09,1.82,7.01,5.58,8.56,4.77,5.44-2.81,8.7,1.71,13.35,2.42ZM349.05,89.54c-6.19.16-8.84,2.63-8.77,8.18.05,4.35,4.44,10.06,7.73,10.06,10.36-.01,12.49-1.13,12.34-6.5-.14-5.29-6.47-11.86-11.29-11.73ZM328.8,157.59c5.01,4.57,5.18,9.24,3.84,14.36-.31,1.19.04,2.97.78,3.96,2.34,3.11,5.02,5.97,7.81,9.21.92-7.08,1.59-13.8,2.71-20.46,1.33-7.93-.67-10.09-8.51-8.55-1.88.37-3.74.83-6.62,1.48ZM373.99,140.77c-6.88,4.97-13.68,9.89-19.73,14.25,10.93-.89,22.74-1.84,34.65-2.81-5.2-3.99-10.18-7.8-14.93-11.44ZM309.9,88.35c1.47,1.68,3.5,2.92,3.69,4.4.58,4.52,3.6,4.4,6.49,3.65,6.93-1.81,8.32-7.73,3.47-13.76-3.58-4.44-9.53-3.83-11.91,1.28-.76,1.64-1.33,3.38-1.74,4.43ZM274.43,90.68c1.05-2.83,2.45-5.66,3.11-8.65.75-3.38-.6-6.44-4.12-7.27-3.38-.8-7.31-2.84-9.4,2.8-2.77,7.51-.2,11.16,10.41,13.12ZM324.74,126.94c8.69-4.42,7.77-7,7.35-12.59-.07-.97-2.42-2.32-3.87-2.55-7.19-1.12-8.16,5.05-10.72,9.34,2.45,1.96,4.76,3.8,7.24,5.79ZM227.65,161.45c6.62.85,11.6,1.49,18.05,2.31-.58-3.69-.33-8.87-1.68-9.33-3.54-1.2-7.95-.99-11.66-.01-1.78.47-2.77,3.96-4.71,7.03ZM385.35,104.2c4.1-5.59,7.52-10.26,11.21-15.28-3.28-1.42-5.82-4.97-9.79-2.12-5.01,3.6-5.44,7.52-1.42,17.4ZM305.74,93.98c-9.91,8.8-8.66,8.41.11,17.1,1.99-2.99,4-6,5.93-8.89-1.9-2.59-3.84-5.21-6.04-8.21ZM277.54,148.48c1.39-2.69.78-4.84-3.92-4.94-2.12-.05-4.47-1.27-6.28-.66-2.2.73-4.27,2.58-5.72,4.47-.66.87-.21,3.48.68,4.37.72.72,2.89.3,4.32-.05,3.39-.84,6.71-1.93,10.94-3.18ZM295.73,211.52c6.3,2.06,10.96-.79,15.65-4.48-7.36-5.74-10.45-4.8-15.65,4.48ZM416.78,157.14c1.99,5.03,5.27,6.41,8.99,6.63,1.07.06,2.25-1.5,3.37-2.32-.73-.96-1.3-2.53-2.21-2.75-3-.74-6.12-.99-10.16-1.56ZM598.48,159.12c2.01,2.72,3.48,4.71,4.95,6.7,1.31-3.3,2.39-6.03,3.66-9.25-2.83.84-5.27,1.56-8.61,2.55Z"/>
    <path class="cls-2" d="M189.55,140.65c-6.94,3.69-13.87,7.4-20.84,11.03-.66.34-1.79.54-2.33.2-17.86-10.88-36.19-6.97-54.5-1.7-5,1.44-9.82,3.48-14.51,5.72,10.71-2.06,21.35-4.72,32.16-6.02,11.08-1.33,22.18-.29,32.75,4.11-9.55,8.34-18.97,16.75-28.66,24.82-1.75,1.46-4.65,1.55-7.02,2.27-.18-.47-.36-.94-.53-1.41,9.36-6.91,18.71-13.83,28.07-20.74-.26-.49-.53-.97-.79-1.46-2.41,1.03-5.29,1.52-7.16,3.17-8.69,7.61-18.92,8.78-29.93,8.84-16.38.09-31.15,6.49-45.55,13.72,8.85-2.53,17.57-5.7,26.57-7.42,8.96-1.72,18.19-1.99,27.3-2.89.15.61.29,1.22.44,1.82-7.56,5.85-14.98,11.9-22.77,17.43-1.89,1.34-5.09.66-7.5,1.46-10.44,3.48-20.8,7.16-30.85,11.83,10.78-3.03,21.57-6.06,32.35-9.09.22.38.44.77.65,1.15-2.15,2.32-4.37,4.57-6.42,6.96-5.15,6-10.27,12.02-15.3,18.11-2.42,2.93-4.49,6.15-6.93,9.06-.65.77-2.11.85-3.18,1.29-1.81.74-3.6,1.52-5.87,2.48-6.44-10.49-13.1-21.31-19.72-32.17-.59-.97-1.45-2.26-1.23-3.18,1.43-5.86.88-11.39-1.81-16.79-.26-.51.62-1.75,1.18-2.49,4.3-5.61,4.35-7.12-.26-14.08,1.87-1.03,3.59-2.36,5.54-2.98,6.12-1.95,10.9-7.59,9.61-15.81-.89-5.69,3.97-7.17,7.09-7.85,6.97-1.51,9.83-5.25,12.33-11.77,1.95-5.1,6.91-9.98,11.77-12.86,9.38-5.54,18.6-12.53,30.63-10.74-.05,9.73,4.84,12.96,16.32,10.68,7.83-1.56,15.74-4.15,23.57-4.01,10.76.19,21.48,2.55,32.22,3.92,7.8.99,15.61,1.86,23.4,2.85,3.27.41,6.5,1.1,9.77,1.48,5.19.59,10.4,1.01,15.86,2.18-7.36,2.7-14.75,5.33-22.08,8.13-4.62,1.76-9.2,3.65-13.69,5.73-2.65,1.23-4.73.44-7.46-.06-10.23-1.88-20.68-3.39-31.05-3.39-8.51,0-17.03,2.22-25.51,3.71-3.2.56-6.29,1.81-9.28,3.26,10.37-.86,20.73-2.27,31.11-2.43,10.48-.17,20.97.9,31.46,1.43.2.83.39,1.65.59,2.48Z"/>
    <path class="cls-2" d="M45.43,84.56c11.72-3.03,23.47-5.39,36.73-2.64-26.12,12.77-47.11,31.06-68.2,50.59-.49-2.12-.81-2.67-.66-2.99,7.19-15.04,14.18-30.18,21.74-45.03,4.41-8.66,9.61-16.92,14.76-25.17.7-1.12,3.38-1.91,4.77-1.52,6.15,1.75,10.23-.04,12.58-6.08,1.26-3.21,1.98-6.84,3.99-9.49,1.97-2.6,5.13-5.67,8.01-5.95,6.44-.62,10.91-3.45,14.24-8.48,8.49,3.63,14.37-.7,18.25-6.65,1.35-2.07,2.52-3.55,5.32-3.3,1.37.12,3.19-.39,4.18-1.29,4.66-4.26,10.27-3.57,15.89-3.95,7.05-.48,14.12-1.56,21.01-3.16,9.42-2.18,18.52-2.03,27.98.12,10.3,2.35,20.89,3.42,31.35,5.1,7.5,1.2,15,2.47,22.38,3.69-7.21,2.65-14.62,5.61-22.18,8.1-9.4,3.1-18.81,6.34-28.44,8.56-9.43,2.17-19.11,3.46-28.75,4.42-3.13.31-6.44-2.25-9.75-2.5-13.47-1.02-25.65,4.17-37.94,8.6-4.16,1.5-8.1,3.57-12.02,5.71,17.53-4.28,34.45-11.62,53.35-8.79-9.84,4.95-14.86,17.29-28.19,17.76,1.17-5.27-1.68-6.86-5.74-7.37-16.96-2.11-31.51,5.52-46.54,11.3,16.57-1.62,32.31-11.38,49.48-5.67-8.64,6.08-16.78,12.14-25.29,17.63-2.98,1.92-6.03,4.84-10.79,1.31-2.5-1.86-7.41-.55-11.23-.55-10.7,0-20.94,1.9-30.28,7.71ZM145.99,34.02c10.63-2.01,21.13-5.06,32.16-2.56.87.2,2.05-1,3.09-1.55-.75-.68-1.46-1.89-2.27-1.97-11.57-1.1-22.54,1.18-32.98,6.08Z"/>
    <path class="cls-2" d="M515.65,101.26c11.22-10.32,23.42-15.15,35.95-19.38-16.41,1.73-26.97,7.31-39.1,16.12-2.07,1.51-4.92,2.58-7.46,2.69-7.81.33-15.65.04-23.48.12-3.26.03-6.51.41-11.02.71,16.09-12.47,33.08-20.76,51.54-26.26-16.29,1.03-30.57,7.75-44.27,15.76-4.47,2.61-8.11,6.62-12.19,9.91-.73.59-1.7,1-2.63,1.18-6.62,1.23-13.25,2.37-19.99,3.56,18.02-20.81,41.98-30.69,67.45-37.64,5.04-1.38,10.54-1.27,15.84-1.5,9.08-.4,18.17-.71,27.25-.71,4.96,0,9.99.33,14.86,1.21,4.89.88,9.39,2.79,12.81,6.97,2.27,2.78,5.19,5.25,8.27,7.13,10.26,6.24,14.95,17.15,22.24,25.86,4.9,5.86,10.12,11.48,14.74,17.55,4.18,5.5,4.67,11.95,2.67,18.47-1.45,4.74-5.7,3.49-8.3,2.41-3.38-1.41-5.59-.26-8.34,1-4.77,2.17-9.67,4.1-14.61,5.85-1.15.41-3.08.15-3.98-.6-2.26-1.9-4.1-4.3-6.19-6.42-4.94-5.03-2.99-11.79-4.36-17.71-.69-3.01-.37-6.32-.11-9.46,1.03-12.18-9.7-18.16-20.25-15.91-4.09.87-8.26,1.39-12.39,2.06-.23-.71-.46-1.42-.69-2.14,11.48-5.03,22.96-10.06,34.44-15.09-.08-.28-.17-.55-.25-.83-9.86,3.34-19.82,6.44-29.54,10.15-3.29,1.26-5.94,4.14-9.02,6.06-.88.55-2.25.47-3.39.41-8.41-.44-16.82-.95-26.52-1.52Z"/>
    <path class="cls-2" d="M321.42,72.74c6.17-2.1,13.86-4.24,21.15-7.31,11.41-4.8,22.53-10.27,33.81-15.35,4.03-1.81,7.55-4.93,12.9-2.29,2.18,1.08,5.94-1.27,9.03-1.77,12.38-2,24.78-3.89,37.17-5.81,12.18-1.88,24.89-.79,36.42-6.55,1.09-.54,3.19-.12,4.28.63,2.16,1.5,4.25,3.32,5.84,5.42,5.63,7.44,13.13,6.97,20.76,4.87,4.89-1.35,9.52-3.64,14.72-5.69,3.71,6.17,10.7,5.15,16.87,5.78,5.93.6,11.98.13,18.4.13.5,4.67,3.45,6.31,8.04,7.34,2.34.52,3.93,4.43,6.55,7.68-12.32,0-22.98.08-33.63-.02-16.28-.15-32.02,2.37-46.84,9.34-3.14,1.48-5.34.82-8.5-.57-11.31-4.97-22.58-10.1-35.33-10.99-4.49-.32-8.93-3.15-13.14-5.31-12-6.15-24.4-6.86-37.2-3.31-1.41.39-2.74,1.14-4.04,1.86-8.89,4.93-18.14,9.34-26.5,15.06-5.47,3.74-9.62,9.4-14.37,14.19-1.13,1.14-2.09,2.81-3.46,3.31-10.87,3.93-13.68,14.65-6.04,23.26.61.69.45,2.06.89,4.32-10.53-9.66-17.79-7.56-27.61,6.94-1.18-1.26-2.29-2.46-4.01-4.31,5.41-3.06,8.21-8.38,14.99-9.86,9.52-2.09,13.33-15.87,7.09-23.21-2.73-3.21-6.15-5.83-8.22-7.75Z"/>
    <path class="cls-2" d="M255.61,51.09c-2.18,1.66-4.28,3.44-6.57,4.96-6.22,4.12-12.36,8.4-18.81,12.12-9.06,5.23-15.06,13.38-21.48,21.21-5.05,6.15-10.16,12.26-15.62,18.04-1.36,1.44-4.29,2.36-6.28,2.06-8.12-1.2-16.18-4.23-24.23-4.17-8.97.07-11.62-5.82-15.03-10.75,2.28-2.65,5.09-4.72,6.09-7.45.8-2.2-.58-5.19-1.18-9.03,7.31-9.51,18.02-17.67,31.14-20.78,13.1-3.11,26.76-3.87,40.19-5.53,6.57-.81,13.17-1.45,19.78-1.92,3.79-.27,7.62-.05,11.43-.05.19.43.38.85.57,1.28Z"/>
    <path class="cls-2" d="M368.13,160.04c4.92-.43,9.83-.98,14.76-1.25,4.16-.23,7.88-.64,11.25,3.74,3.77,4.9,9.32,4.1,16.28.1,4.41,2.64,8.22,5.03,12.13,7.25,6.3,3.58,13.19-3.98,13.58-9.63.24-3.47-5.13-8.18-9.81-8.42-3.26-.17-6.55.35-9.88.57-3.6-8.15-15.38-11.58-22.62-5.62,5.36,1.83,10.25,3.5,15.11,5.16-1.82,7.18-4.69,8.63-11.43,5.53.37-1.6.76-3.29.97-4.22-6.57-5.54-12.86-10.85-20.48-17.26,7.89-3.66,14.69-6.89,21.58-9.9.75-.33,2.08.44,3.05.9,6.35,3,12.67,6.05,19.31,9.23-1.51,2.95-3.48,6.79-5.45,10.64,6.31-5.95,15.18-9.32,16.11-19.79.44-4.95,4.66-1.75,7.86-.66-2.91,5.08-5.02,10.26-10.5,13.01-1.3.65-3.03,2.52-2.85,3.51.26,1.42,1.87,3.2,3.3,3.71,12.68,4.55,15.65,15.12,16.88,26.76.3,2.78.04,5.61.04,8.1-2.8.6-5.92.88-8.67,2.02-1.42.59-2.2,2.72-3.27,4.16,1.71.49,3.39,1.12,5.13,1.42.93.16,2.06-.58,2.91-.31,1.88.59,3.64,1.56,5.45,2.37-1.22,1.64-2.16,3.66-3.74,4.78-1.11.79-3.1.34-4.7.44-2.04.13-4.08.27-6.12.41.21,2.03.43,4.05.69,6.59-8.39,5.73-14.88-3.32-22.86-5.09,1.63-.59,3.27-1.17,6.25-2.24-7.58-4.33-14.25-1.05-21.35-1.35.87-4.02,1.68-7.77,2.7-12.44,6.5,2.17,12.81,4.27,19.12,6.39.94.31,1.93,1.1,2.77.95,1.89-.34,3.71-1.12,5.56-1.72-1.19-1.4-2.11-3.49-3.62-4.09-6.28-2.5-12.76-4.5-19.12-6.81-1.45-.53-2.73-1.54-4.07-2.37-.7-.43-1.35-1.38-2.01-1.36-12.02.32-20.29-8.33-30.62-12.02.11-.39.21-.78.32-1.18Z"/>
    <path class="cls-2" d="M257.12,59.29c-5.01,10.47-4.43,21.44-1.28,32.54.24.86-.58,2.55-1.41,3.1-6.13,4-9.69,9.82-12.6,16.31-.63,1.42-2.76,3.19-4.1,3.11-11.83-.74-23.63-1.85-35.44-2.89-.92-.08-1.81-.47-2.13-.56,14.21-22.39,32.13-40.8,56.96-51.61Z"/>
    <path class="cls-2" d="M451.28,88.05c-3.21,3.53-6.61,7.28-10.21,11.24-7.63-14.47-17.53-15.57-38.03-12.54-3.97-5.27-9.46-7.28-16.21-7.14-2.31.05-4.87-1.59-6.94-3.01-3.27-2.23-6.22-4.92-9.76-7.79,7.01-4.55,14.59-7.21,22.58-9.15,9.34-2.28,17.08,1.29,24.79,5.73,7.14,4.11,14.63,7.62,21.55,12.06,4.37,2.81,7.96,6.83,12.23,10.6Z"/>
    <path class="cls-2" d="M321.2,132.68c-3.79,7.6-5.58,7.76-11.41,2.02-1.7-1.68-4.01-2.91-6.25-3.86-5.15-2.18-10.35-4.32-15.68-5.97-4.81-1.48-9.88-2.11-14.76-3.41-8.36-2.22-16.66-4.68-25.16-7.08.46-9.98,11.23-12.88,16.45-20.2,3.06-.56,6.61-1.2,9.3-1.69,3.09,3.27,5.44,7.24,8.93,9.15,6.87,3.77,13.12,7.77,18.34,13.89,4.11,4.81,9.87,8.21,14.85,12.3,1.9,1.56,3.66,3.29,5.39,4.86Z"/>
    <path class="cls-2" d="M576.35,134.38c-8.79-1.12-18.15-2.21-27.48-3.55-6.2-.89-12.85-1.03-18.38-3.53-8.1-3.67-13.19-10.98-17.49-19.8,8.78.59,16.53,1.39,24.29,1.55,8.93.18,17.87-.22,26.81-.35,2.32-.03,5.01-.72,6.87.2,2.17,1.08,4.93,3.47,5.14,5.53.65,6.54.24,13.19.24,19.96Z"/>
    <path class="cls-2" d="M291.13,99.04c-3.29-1.9-8.96-2.38-8.81-8.8.03-1.13.04-2.31.38-3.37,2.47-7.5,1.27-12.78-3.95-16.88-4.48-3.52-12.6-3.45-18.77.7,2.47-7.09,3.41-14.1,10.13-17.77,1.43-.78,3.9-.94,5.32-.23,8.59,4.31,17.18,7.66,27.2,7.45,6.63-.14,8.36,2.48,10.08,9.19.35,1.38,1.1,2.66,1.75,4.18-6.16,2.29-9.69,6.34-9.21,13.19.05.71-.72,1.68-1.36,2.21-4.03,3.28-8.13,6.46-12.76,10.12Z"/>
    <path class="cls-2" d="M425.96,22.02c9.31-7.17,18.97-13.85,30.5-14.81,11.6-.97,22.75,2.01,32.33,9.41,6.1,4.71,12.43,9.1,18.68,13.62,1.44,1.04,2.94,2.01,4.71,3.22-6.47,4.74-13.38,6.2-20.83,5.29-1.15-.14-2.29-1.06-3.26-1.84-4.78-3.85-7.85-10.06-15.08-10.58-.88-.06-1.71-1.85-2.43-2.92-3.47-5.21-8.03-7.89-14.57-7.75-7.65.16-15.17.03-22.18,3.93-2.35,1.31-5.24,1.65-7.88,2.44Z"/>
    <path class="cls-2" d="M387.27,111.98c-.66-2.24-1.19-4.07-1.73-5.9,6.65-1.67,11.66-5.41,15.72-10.68.98-1.27,2.71-2.7,4.14-2.74,6.89-.22,13.83-.4,20.66.31,2.36.24,4.9,2.74,6.55,4.84,2.69,3.41-1.18,9.36-6.39,10.98-7.23,2.25-14.43,4.64-21.46,7.41-5.64,2.23-11.01,5.15-16.54,7.69-1.38.63-2.92.94-4.76,1.52-.15-3.87.93-5.67,4.22-6.71,12.25-3.88,24.4-8.06,36.58-12.17.74-.25,1.36-.83,3.35-2.07-15.09-2.43-27.36,2.48-40.32,7.53Z"/>
    <path class="cls-2" d="M393.66,180.33c-1.22,5.2-2.37,10.15-3.63,15.54-5.21,0-10.32.11-15.43-.12-.73-.03-2.18-2.09-1.96-2.53,1.66-3.28-.94-4.56-2.37-6.75-5.05-7.74-9.63-15.79-14.39-23.72.26-.43.51-.86.77-1.29,1.28.26,2.75.21,3.81.84,7.19,4.31,14.21,8.92,21.48,13.09,3.41,1.95,7.27,3.1,11.72,4.94Z"/>
    <path class="cls-2" d="M257.76,204.19c-.55,6.52-.54,12.76-1.73,18.77-1.25,6.3-7.49,8.18-11.54,11.28-1.45-2.32-2.32-5.4-4.12-6.11-1.69-.67-4.42,1.06-6.59,1.97-1.35.57-2.49,2.19-3.77,2.25-1.94.08-4.07-.51-5.77-1.45-.41-.23.02-3.5.98-4.41,3.78-3.61,7.95-6.8,11.91-10.23.95-.82,1.89-1.83,2.41-2.95,2.86-6.12,11.49-10.48,18.22-9.12Z"/>
    <path class="cls-2" d="M355.81,83.75c3.15-3.43,6.23-6.8,9.54-10.41,4.46,3.41,9.18,7.01,14.45,11.04-6.72,7.75-2.8,15.76-.82,22.72-7.17,4.72-13.99,9.2-22.02,14.48,2.55-4.26,4.11-8.01,6.66-10.87,4.46-5.01,4.75-12.97-.13-18.57-2.59-2.98-5.33-5.84-7.67-8.39Z"/>
    <path class="cls-2" d="M474.3,74.66c-5.77,3.22-11.54,6.44-17.99,10.05-13.08-14.68-30.23-23.67-48.58-30.77.27-.62.54-1.24.81-1.86,6.62,2.18,13.49,3.81,19.81,6.67,7.3,3.31,14.64,5.59,22.56,7.03,7.98,1.45,15.62,4.77,23.41,7.27,0,.54-.01,1.07-.02,1.61Z"/>
    <path class="cls-2" d="M363.34,201.45c1.54-.77,3.07-1.53,4.67-2.33,2.55,3.21,5.21,6.56,7.87,9.91-.1.44-.2.88-.3,1.32-4.57-.57-9.13-1.14-13.97-1.74-.56-10.35-8.31-14.63-15.89-17.97,1.71-8.51,3.34-16.61,4.91-24.46,5.24,8.77,10.55,17.64,15.92,26.62-1.22,2.18-2.72,4.89-4.23,7.6.34.35.68.71,1.03,1.06Z"/>
    <path class="cls-2" d="M403.3,37.81c5.9-6.69,13.17-8.1,20.82-9.15,4.68-.64,9.43-2.04,13.72-4.02,6.31-2.91,12.8-3.24,19.44-2.83,4.34.27,7.33,2.56,8.73,7.71-20.63,5.29-41.86,3.3-62.71,8.3Z"/>
    <path class="cls-2" d="M348.96,150.68c-1.56-2.59-2.73-4.53-3.78-6.27,8.88-12.97,21.12-21.74,34.26-30.09-.72,2.34-1.82,4.65-2.08,7.04-1.16,10.53-9.06,15.9-16.38,21.63-3.61,2.83-7.74,4.99-12.02,7.69Z"/>
    <path class="cls-2" d="M245.03,121.33l14.75,2.07c-19.4,2.84-36.15,9.43-48.36,25.22-2.11,2.72-4.62,3.3-8.22,1.8-2.77-1.15-6.71-1.66-9.33-.56-5.68,2.37-10.68,6.36-16.31,8.87-2.44,1.09-5.77.18-9.54.18,10.25-5.48,19.29-11.08,28.93-15.29,14.04-6.13,28.54-11.2,42.78-16.88,2-.8,3.64-2.52,5.44-3.81-.05-.53-.1-1.07-.15-1.6Z"/>
    <path class="cls-2" d="M344.86,194.71c3.41,4.15,8.34,7.86,9.93,12.68,1.88,5.67-2.9,8.84-8.69,10.76-6.66,2.21-9.94-3.61-15.15-4.64-3.06-.61-2.54-7.76.42-9.81,3.53-2.45,7.1-4.85,10.65-7.26.54-.36,1.11-.68,2.83-1.73Z"/>
    <path class="cls-2" d="M326.86,165.43c-3.26,2.51-6.02,4.64-7.84,6.05-5.11-.64-9.68-1.21-14.24-1.78-.08.52-.16,1.04-.25,1.56-3.16-2.11-6.44-4.06-9.45-6.36-3.94-3.02-4.11-6.43-.13-9.4,5.98-4.47,13.96-3.96,17.59,2.68,2.17,3.99,4.55,4.64,8.19,4.53,2.66-.08,5.47-.41,6.14,2.73Z"/>
    <path class="cls-2" d="M74.84,243.32c-2.18-3.08-3.39-4.79-4.19-5.92,12.39-22.3,30.13-38.96,51.16-54.3-1.24,3.81-2.09,6.41-2.77,8.48-11.14,2.49-16.61,10.43-21.98,18.97-6.86,10.91-14.44,21.37-22.22,32.77Z"/>
    <path class="cls-2" d="M312.95,199.62c-4.64-.71-7.91-5.23-13.35-2.42-1.55.8-5.47-2.96-8.56-4.77,6.82-5.84,13.33-11.42,19.93-17.07,4.65,3.52,4.93,6.31,1.97,24.26Z"/>
    <path class="cls-2" d="M349.05,89.54c4.83-.13,11.15,6.44,11.29,11.73.15,5.37-1.98,6.49-12.34,6.5-3.29,0-7.68-5.71-7.73-10.06-.06-5.54,2.59-8.01,8.77-8.18Z"/>
    <path class="cls-2" d="M328.8,157.59c2.88-.65,4.74-1.11,6.62-1.48,7.85-1.54,9.84.62,8.51,8.55-1.12,6.65-1.79,13.38-2.71,20.46-2.79-3.24-5.46-6.1-7.81-9.21-.74-.98-1.09-2.76-.78-3.96,1.34-5.12,1.16-9.8-3.84-14.36Z"/>
    <path class="cls-2" d="M373.99,140.77c4.75,3.64,9.72,7.45,14.93,11.44-11.92.97-23.73,1.92-34.65,2.81,6.04-4.37,12.85-9.28,19.73-14.25Z"/>
    <path class="cls-2" d="M309.9,88.35c.41-1.06.97-2.79,1.74-4.43,2.37-5.1,8.33-5.72,11.91-1.28,4.86,6.03,3.47,11.95-3.47,13.76-2.88.75-5.9.87-6.49-3.65-.19-1.48-2.22-2.73-3.69-4.4Z"/>
    <path class="cls-2" d="M274.43,90.68c-10.61-1.96-13.18-5.61-10.41-13.12,2.08-5.64,6.01-3.6,9.4-2.8,3.52.83,4.87,3.89,4.12,7.27-.66,2.99-2.06,5.82-3.11,8.65Z"/>
    <path class="cls-2" d="M324.74,126.94c-2.49-1.99-4.8-3.83-7.24-5.79,2.56-4.29,3.53-10.46,10.72-9.34,1.45.22,3.8,1.57,3.87,2.55.42,5.59,1.35,8.17-7.35,12.59Z"/>
    <path class="cls-2" d="M227.65,161.45c1.95-3.07,2.93-6.56,4.71-7.03,3.71-.98,8.12-1.18,11.66.01,1.35.45,1.1,5.63,1.68,9.33-6.45-.83-11.43-1.46-18.05-2.31Z"/>
    <path class="cls-2" d="M385.35,104.2c-4.02-9.88-3.59-13.8,1.42-17.4,3.97-2.86,6.51.69,9.79,2.12-3.69,5.03-7.11,9.7-11.21,15.28Z"/>
    <path class="cls-2" d="M305.74,93.98c2.21,3,4.14,5.62,6.04,8.21-1.93,2.89-3.94,5.91-5.93,8.89-8.77-8.7-10.02-8.31-.11-17.1Z"/>
    <path class="cls-2" d="M277.54,148.48c-4.22,1.25-7.55,2.34-10.94,3.18-1.42.35-3.6.77-4.32.05-.88-.89-1.34-3.5-.68-4.37,1.45-1.89,3.53-3.73,5.72-4.47,1.81-.61,4.16.62,6.28.66,4.7.1,5.31,2.25,3.92,4.94Z"/>
    <path class="cls-2" d="M295.73,211.52c5.2-9.28,8.29-10.21,15.65-4.48-4.69,3.69-9.35,6.54-15.65,4.48Z"/>
    <path class="cls-2" d="M416.78,157.14c4.04.57,7.16.82,10.16,1.56.91.22,1.48,1.8,2.21,2.75-1.13.82-2.3,2.39-3.37,2.32-3.72-.22-7-1.61-8.99-6.63Z"/>
    <path class="cls-2" d="M598.48,159.12c3.34-.99,5.78-1.71,8.61-2.55-1.27,3.22-2.35,5.95-3.66,9.25-1.47-1.99-2.94-3.99-4.95-6.7Z"/>
    <path class="cls-1" d="M145.99,34.02c10.45-4.91,21.41-7.18,32.98-6.08.81.08,1.51,1.29,2.27,1.97-1.04.55-2.22,1.75-3.09,1.55-11.03-2.51-21.53.54-32.16,2.56Z"/>
  </g>
</svg>