<?xml version="1.0" encoding="UTF-8"?>
<svg id="Layer_2" data-name="Layer 2" xmlns="http://www.w3.org/2000/svg" viewBox="0 0 1234.75 577.18">
  <defs>
    <style>
      .cls-1 {
        fill: #000;
        stroke-width: 0px;
      }
    </style>
  </defs>
  <g id="Layer_1-2" data-name="Layer 1">
    <path class="cls-1" d="M608.19,553.89c-4.61,5.87-8.79,11.17-12.94,16.49-5.26,6.74-11.84,8.55-19.67,5.08-6.16-2.73-12.45-5.3-18.26-8.67-5.52-3.2-4.18-7.64-1.22-12.4,11.69-18.79,13.01-40.46,17.79-61.6-16.29-2.96-30.24,1.21-44.27,6.33-4.22,1.54-11.48,2.16-13.72-.21-2.44-2.6-1.46-9.31-.52-13.93.93-4.58,3.65-8.79,5.69-13.38q-17.85-.65-18.12-22.73c-7.67,5.45-14.63,10.93-22.11,15.57-10.69,6.63-15.34,5.07-20.78-4.87-7.83,1.16-15.37,3.96-22.36,2.96-15.16-2.16-20.56-16.16-12.07-28.71,1.8-2.66,3.81-5.28,6.18-7.41,14.96-13.5,29.52-27.51,45.25-40.06,12.35-9.85,29.04-5.63,38.82,9.14,9.12-6.86,18.17-13.67,26.64-20.04-19.74-15.25-38.54-30.04-57.73-44.31-3.31-2.46-8.21-3.38-12.5-3.8-6.73-.65-13.56-.14-20.34-.37-8.44-.28-16.67-2.02-19.58-11.12-2.89-9.05.55-17.36,6.83-23.95,7.34-7.71,28.61-10.67,38.31-6.05,8.89,4.24,13.44,14.89,11.82,26.34-.35,2.5.26,6.43,1.94,7.73,18.58,14.26,37.47,28.11,56.26,42.1,4.22,3.14,7.75,3.04,11.93-.7,7.41-6.64,15.39-12.64,23.5-19.21-11.57-11.07-31.77-15.03-27.32-38.75-12.68,5.89-25.21-6.01-38.26,4-8.59,6.59-23.44-5.74-23.06-17.87.52-16.49,14.14-27.44,30.59-24.59.63.11,1.28.12,1.93.2,22.99,2.79,24.11,3.94,25.26,28.97,7.98-2.82,15.02-5.42,22.14-7.79,17.42-5.82,31.12-1.72,42.6,12.65,1.19,1.49,2.26,3.09,4.41,6.06,10.99-15.26,27.62-14.55,43.86-16.37-8.19-10.37-16.05-20.31-25.13-31.8,12.68-2.01,20.47-.04,24.77,10.86,7.59-15.99,14.55-30.63,22.1-46.53h-28.85c1.22,15.16-5.65,26.25-18.3,35.13-4.35,3.05-7.33,10.02-8.19,15.62-1.45,9.4-7.33,11.5-14.4,10.08-25.95-5.2-52.47-8.18-77.01-19.18-26.16-11.73-51.62-10.08-78.26.72-17.41,7.06-29.65,18.83-41.51,31.83-9.85,10.8-18.47,13.1-31.36,7.01-2.29-1.08-5.6-1.46-7.95-.69-11.24,3.68-22.72,6.88-29.66,18.13-1.57,2.54-7.32,5.21-9.56,4.22-21.45-9.4-35.92,4.17-51.21,14.82-9.76,6.8-18.37,15.64-28.82,20.93-9.52,4.83-19.01,7.83-21.32,20.04-.39,2.06-4.22,4.7-6.66,4.94-19.19,1.81-26.05,16.93-34.94,30.56-14.94,22.91-26.92,48.25-50.78,64.19-8.72,5.83-9.88,5.65-15.21-3.83-1.88-3.35-4.11-6.49-6.18-9.72-12.7,5.56-17.19,4.12-24.22-7.53-12.77-21.15-25.87-42.11-38.08-63.58-2.33-4.1-1.05-10.2-1.61-15.36-.61-5.64-.59-11.53-2.33-16.81-2.72-8.23-6.5-15.85,4.21-21.48,1.05-.55.99-5.78-.28-7.72-6.5-9.98-.5-24.86,11.48-27.54,13.19-2.95,15.75-7.67,13.68-21.26-.63-4.09.72-10.61,3.58-12.71,7.89-5.77,17.13-9.68,25.69-14.59,2.41-1.38,5.68-3.34,6.2-5.58,4.47-19.31,18.41-30.6,33.95-40.23,10.07-6.24,20.5-12.32,31.55-16.39,9.1-3.35,19.29-4.23,29.09-4.94,2.96-.21,7.17,3.14,9.15,6,3.37,4.85,5.43,10.61,8.63,17.21,16.03-2.25,32.28-4.52,49.04-6.87-4.02-13.7-24.69-22.57-5.88-37.14-10.41-7.23-10.47-10.84-1.04-19.34,10.77-9.72,20.28-21.17,32.08-29.35,18.86-13.09,38.16-25.77,63.4-24.13,9.86.64,19.95-4.47,30.1-5.65,16.56-1.92,33.22-3.35,49.88-3.91,22.45-.76,44.94-.66,67.41-.55,4.7.02,9.44,1.56,14.09,2.69,8.29,2.02,16.61,3.99,24.75,6.52,4.37,1.36,8.37,3.86,12.58,5.77,2.22,1,4.45,2.33,6.79,2.63,6.25.79,12.56,1.09,18.99,1.6-3.75-28.32-23.62-43.2-46.86-55.06-25.95-13.24-53.02-10.87-79.53-3.2-34.15,9.88-67.69,21.87-101.72,32.22-11.55,3.51-23.86,6.99-35.69,6.6-18.42-.61-32.1,7.26-45.15,18.23-4.45,3.74-9.03,7.34-13.17,11.41-9.21,9.05-20.74,11.06-32.83,14.13-13.11,3.33-24.92,12.03-37.08,18.78-9.46,5.25-17.99,12.92-28.01,16.29-19.74,6.63-37.32,16.59-54.67,27.77-26.41,17.02-49.9,37.3-72.98,58.5-12.33,11.33-28.07,19.01-42.58,27.83-1.93,1.17-6.4.18-8.36-1.43-1.3-1.06-1.14-5.51-.03-7.6,4.34-8.24,9.92-15.86,13.93-24.24,8.83-18.46,16.31-37.58,25.63-55.78,7.73-15.09,17.47-29.14,26-43.83,6.12-10.53,12.21-21.13,17.42-32.12,6.78-14.29,11.58-16.96,26.89-14.21,2.46.44,6.05-1.96,8.14-4.04,1.6-1.59,1.66-4.74,2.42-7.19,5.17-16.65,15.64-28.21,33.07-31.51,7.87-1.49,13.47-4.75,18.04-11,4.3-5.87,9.53-7.9,16.7-3.79,8.49,4.87,13.57-1.84,17.35-7.46,4.87-7.26,8.87-14.46,19.41-12.26.79.17,1.96-.37,2.65-.95,13.04-10.88,27.96-10.25,43.84-9.09,9.51.69,19.47-3.14,29.07-5.56,21.61-5.44,42.79-5.54,64.73-.12,20.42,5.04,41.59,7.16,62.52,9.97,31.12,4.19,62.39,7.37,93.46,11.87,33.85,4.9,82.31,28.18,90.02,74.02,1.51,9.01,5.34,17.63,8.41,27.41,16.74-6.13,33.3-11.1,48.93-18.13,33.04-14.87,66.06-29.94,98.18-46.67,17.08-8.9,32.37-21.28,48.28-32.34,23.16-16.1,47.43-29.72,76-33.03,5.45-.63,11.29,1.76,16.9,3.01,20.73,4.66,40.26,10.19,55.85,27.28,9.98,10.94,25.14,17.17,37.95,25.54,2.15,1.41,4.81,2.54,6.2,4.53,12.74,18.05,31.37,14.82,49.37,13.96,5.79-.28,11.6-1.19,17.35-.86,2.86.16,7.51,1.93,8.06,3.89,2.21,7.96,7.23,12.06,14.76,14.03.86.22,1.93.99,2.23,1.77,5.98,15.53,19.52,24.66,30.6,35.78,9.51,9.54,19.81,18.3,29.78,27.38,3.56,3.24,7.74,5.98,10.71,9.69,18.08,22.6,35.98,45.35,53.76,68.19,9.63,12.37,10.57,27,8.13,41.48-2.98,17.69-13.21,22.91-35.02,18.39-6.05,12.78-12.9,25.73-18.31,39.27-2.72,6.8-6.25,6.08-9.95,2.83-5.97-5.26-11.53-11.12-16.57-17.28-10.35-12.66-20.24-25.68-30.31-38.57-8.23-10.53-20.7-8.93-31.79-10.79-19.62-3.29-39.35-5.88-59.04-8.73-15.5-2.25-24.41-13.87-33.54-24.51-6.64-7.73-11.5-16.99-18.41-27.46-50.65-6.05-145.16,7.25-192.68,28.76,13.38,5.14,25.07,9.62,37.16,14.26.69-4.03,1.35-8.77,2.33-13.43,1.68-7.95,5.42-13.08,14.76-10.22,4.89,1.5,10.16,2.06,14.77,4.13,9.19,4.14,11.93,12.88,6.83,21.52-4.54,7.7-9.74,15.01-14.7,22.59,27.69,18.23,31.69,46.39,30.14,76.78-.12,2.34-.45,5.16.63,6.98,9.58,16.16-1.26,25.4-12.35,31.92-3.37,1.98-6.88,4.26-9.27,7.24-8.2,10.2-32.26,12.57-45.8,5.05-5.53-3.07-12.22-4.81-18.56-5.45-7.67-.78-11.9-2.73-7.97-11.98-4.85,1.15-8.48,2.36-12.21,2.82-5.87.73-8.36,4.01-10.13,9.47-1.96,6.02-5.48,11.54-8.75,18.16q-5.61-6.91-1.81-24.64c-6.7-.66-13.3-1.31-23.33-2.29,5.17,7.59,9.37,12.75,12.34,18.54,1.46,2.85,1.91,7.41.65,10.24-3.25,7.3-7.7,14.07-11.92,21.5,14.48,1.62,12.57,12.78,12.97,23.08,12.03,2.21,23.82,6.14,35.23-2.04,7.29-5.23,7.35-8.19-.29-12.32-1.7-.92-3.85-1.25-5.2-2.49-2.42-2.23-6.43-5.31-6.06-7.38.52-2.94,4.3-5.39,6.9-7.82.85-.8,2.57-.61,3.54-1.35,4.89-3.75,9.66-7.65,14.48-11.49-4.73-2.56-9.47-5.1-14.19-7.69-3.92-2.15-7.81-4.36-12.7-7.11,12.78-7.51,30.99-3.81,37.89,6.16,4.7,6.78,2.35,13.2-2.06,18.66-3.37,4.17-8.05,7.27-13.61,12.12,1.81,1.31,4.11,2.42,5.64,4.2,5.19,6.06,6.58,12.48.66,19-9.3,10.26-19.97,17.03-34.74,14.38-4.41-.79-9.03-.37-13.52-.81-11.7-1.13-15.04-4.81-15.39-16.62-.06-1.9-.17-3.81-.26-5.59-14.76-3.47-16.96-8.59-9.63-21.85,2.31-4.17,4.93-8.17,7.57-12.5-9.78-1.43-19.04-2.79-26.61-3.9-6.77,5.23-13.33,11.69-21.12,15.9-7.06,3.82-15.34,6.13-23.33,7.1-2.91.35-6.55-5.05-9.81-7.88-2.12-1.85-4.16-3.79-6.23-5.69-.47.64-.95,1.27-1.42,1.91,1.91,12.6,3.82,25.2,5.72,37.8-.66.14-1.31.28-1.97.41-5.93-21.11-12.21-42.13-17.59-63.38-2.07-8.17,3.28-13.99,9.79-18.39,6.36-4.3,12.78-8.52,20.36-13.56-8.55-10.8-16.66-21.05-26.8-33.85-2.35,6.57-4.28,11.2-5.66,15.98-2.93,10.12-5.79,20.28-8.2,30.53-.71,3.03.47,6.45.33,9.68-.21,4.94,1.1,11.85-1.59,14.45-9.01,8.69-19.68,14.05-33,16.06-10.36,1.56-20.04,8.72-29.56,14.19-4.9,2.81-8.8,7.35-13.15,11.1l-1.65-1.74c9.53-9.04,19.07-18.07,28.69-27.19-6.78-10.42-6.25-13.27,6.34-29.21-4.73-3.1-9.2-6.64-14.22-9.01-1.83-.86-5.47.38-7.44,1.82-8.85,6.42-17,13.9-26.18,19.76-9.81,6.27-12.25,15.76-14.22,26.17,11.93,6.76,6.32,17.7,6.43,27.44,20.94,1.45,21.57,2.69,13.13,28,18.93-6.22,37.62-8.48,56.95-2.86,3.11-14.5,6.35-29.6,10.03-46.73-14.07,7.91-26.68,14.99-39.29,22.08-.62-.88-1.24-1.76-1.86-2.64,12.58-8.69,25.17-17.36,37.71-26.1,2.27-1.58,4.7-3.17,6.42-5.27,3.75-4.58,7.62-6.1,12.08-1.31,13.62,14.64,19.1,58.34,9.01,79.8-.61-23.63.67-45.9-10.63-66.06-8.42,14.51-8.19,21.44-5.91,37.15,2.23,15.42,1.61,31.28,1.92,46.95.04,2.29-1.72,4.61-3.59,9.24-1.94-19.2-3.65-36.01-5.35-52.82-1.24-.22-2.48-.45-3.72-.67-2.3,7.21-4.9,14.34-6.83,21.65-5.2,19.74-10.11,39.56-15.32,60.08,9.96,8.47,11.9,8.3,20.56-2.53,3.01-3.76,5.68-8.5,9.66-10.58,3.93-2.06,10.08-3.13,13.94-1.51,11.67,4.91,15.9,3.74,20.33-8.92,2.2-6.28,3.38-13.16,13.32-9.95-.5-9.93,2.81-15.92,13.53-15.73,6.16.11,7.51-4.34,5.96-9.45-.82-2.7-3-4.96-4.08-7.61-1.91-4.72-5.73-10.15-4.72-14.31,3.03-12.53,7.85-24.63,12.39-36.75.51-1.36,4.61-2.94,5.45-2.3,2.29,1.73,5.54,4.92,5.17,6.95-1.46,8.08-3.04,16.51-6.72,23.71-3.31,6.47-4.26,11.27-.45,17.76,10.98,18.72,9.02,24.07-10.07,34.53-2.28,1.25-3.42,5.58-4.04,8.68-1.4,6.94-3.6,12.28-12.18,12.18-1.83-.02-4.22,2.21-5.45,4.02-9.88,14.46-19.41,16.74-35.08,7.32ZM222.81,203.12c-24.08-3.64-41.98,9.94-60.1,20.76-9.63,5.74-19.01,15.64-23.15,25.84-4.79,11.82-10.04,18.63-22.68,21.57-6.64,1.55-16.18,4.14-14.57,15.52,2.27,15.99-6.8,26.78-18.76,30.58-3.75,1.19-7.05,3.8-10.65,5.8,8.96,13.46,8.85,16.25.45,27.29-1.08,1.42-2.71,3.79-2.22,4.84,4.77,10.21,7.03,20.47,3.3,31.62-.54,1.63,1.16,4.27,2.3,6.16,12.89,21.33,25.88,42.61,38.5,63.35,4.17-1.98,7.35-3.42,10.47-5,3-1.52,6.99-2.44,8.73-4.9,15.72-22.37,31.81-44.36,52.74-62.32.44-.38.55-1.14,1.89-4.1-22.64,6.3-43.67,12.16-64.7,18.01,19.52-9.03,39.63-16.17,59.87-22.91,4.67-1.56,10.87-.25,14.53-2.85,15.09-10.7,29.48-22.4,45.37-34.69-38.63-5.4-72.48,6.66-106.58,17.37,28.33-13.95,57.2-26.72,89.37-26.53,20.82.12,39.82-2.71,56.27-16.64,3.92-3.33,9.65-4.53,14.55-6.7.53.98,1.05,1.95,1.58,2.93-18.14,13.39-36.28,26.78-54.42,40.18.34.92.68,1.84,1.02,2.76,4.63-1.43,10.28-1.63,13.71-4.49,18.77-15.64,37-31.92,55.65-48.2-42.72-16.31-84.33-6.19-126.13,3.89,9.28-4.43,18.64-8.4,28.33-11.18,35.52-10.17,71.07-17.77,105.69,3.35,1.05.64,3.25.23,4.53-.44,13.49-7.04,26.91-14.23,42.73-22.64-43.67-12-84.27-5.67-124.97-1.81,5.97-2.62,11.95-5.02,18.17-6.1,16.43-2.87,32.97-7.19,49.46-7.18,20.11,0,40.45,2.68,60.19,6.69,6.36,1.29,10.63,1.6,16.13-1.06,6.88-3.34,14.14-5.94,21.32-8.63,15.43-5.8,30.91-11.46,46.36-17.18-22.33-3.52-44.2-5.23-65.92-8.04-12.19-1.58-24.06-5.53-36.23-7.41-16.18-2.49-32.48-4.21-48.78-5.77-4.93-.47-10.06.34-15.01,1.15-16.35,2.66-32.57,6.57-49.02,8.13-14.78,1.41-20.82-6.3-19.33-21ZM182.58,53.72c-11.33,11.12-11.52,10.55-28.57,16.37-5.93,2.02-11.76,6.75-15.59,11.8-3.9,5.14-5.3,12.17-7.74,18.4-4.57,11.7-12.47,15.15-24.41,11.76-2.69-.76-7.9.78-9.25,2.95-9.98,15.99-20.08,32.01-28.62,48.78-14.66,28.78-28.22,58.12-42.16,87.26-.3.62.34,1.68,1.3,5.8,40.93-37.78,81.47-73.47,132.38-98.05-25.84-5.27-48.64-.78-71.36,5.13,18.1-11.27,37.97-14.96,58.72-14.95,7.41,0,16.94-2.55,21.78,1.06,9.23,6.88,15.15,1.16,20.92-2.55,16.5-10.62,32.28-22.36,48.91-34.06-33.19-11.36-63.66,7.9-95.79,10.99,29.07-11.52,57.39-25.92,90.23-21.97,7.89.95,13.4,4.06,11.12,14.27,25.86-.93,35.6-24.82,54.68-34.42-36.65-5.46-69.47,8.75-103.45,17.04,7.59-4.14,15.25-8.17,23.31-11.07,23.83-8.57,47.45-18.64,73.58-16.65,6.41.49,12.83,5.44,18.9,4.84,18.69-1.85,37.46-4.36,55.75-8.56,18.67-4.29,36.92-10.57,55.15-16.58,14.67-4.83,29.04-10.56,43.02-15.7-14.34-2.37-28.87-4.82-43.43-7.15-20.28-3.24-40.82-5.32-60.79-9.88-18.35-4.19-35.99-4.45-54.25-.23-13.35,3.08-27.07,5.19-40.74,6.12-10.91.74-21.79-.58-30.82,7.67-1.92,1.76-5.46,2.74-8.1,2.5-5.44-.49-7.74,2.36-10.3,6.41-8.87,14.06-20.75,18.38-34.39,12.67ZM1002.17,193.08c.37.71.74,1.42,1.11,2.13,4.45.68,8.88,1.52,13.35,2,17.51,1.88,34.79,6.21,51.3-6.16,8.68-6.5,20.27-9.22,30.69-13.28,5.62-2.18,11.5-3.73,17.34-5.28,5.79-1.54,11.67-2.73,17.51-4.08-22.43,9.88-45.76,17.24-65.54,32.54,8.48-.19,16.62-1.47,24.7-3.06,20.75-4.08,40.65,7.77,38.9,30.37-.5,6.42-.48,12.95.09,19.35.81,9.11.15,19.24,4.01,27,10.77,21.66,24.29,24.94,45.51,13.44,2.26-1.22,4.45-2.57,6.64-3.91,5.34-3.27,10.07-4.26,16.99-2.31,10.37,2.92,14.57,3.13,16.87-9.75,2.75-15.35-2.39-27.68-12.15-38.84-8.49-9.71-17.22-19.23-25.37-29.22-12.71-15.58-20.91-34.87-39.34-45.74-6.28-3.7-12.07-8.84-16.79-14.42-8.38-9.9-19.14-14.11-31.36-14.45-20.78-.57-41.59.18-62.37-.42-32.76-.95-63.72,5.8-93.37,19.51-30.26,13.99-59.83,28.86-80.29,56,11.73-1.93,24.05-3.81,36.28-6.11,2.59-.49,5.17-2.19,7.26-3.93,4.64-3.87,8.38-9.21,13.54-12.01,17.97-9.76,35.97-19.68,54.77-27.61,12.5-5.27,26.39-7.27,39.66-10.74-16.89,8.26-33.97,15.25-50.86,22.68-16.87,7.42-32.36,17.09-47.39,29.81,8.77-.5,15.79-1.17,22.82-1.24,15.18-.15,30.36.13,45.53-.06,3.02-.04,6.81-.46,8.91-2.26,22.91-19.67,49.44-30.94,79.25-34.98-11.63,5.01-23.91,8.67-35.15,14.36-11.54,5.85-22.08,13.68-33.05,20.64ZM658.17,212.24c-.74-2.06-.93-4.65-2.31-6.1-13.75-14.43-8.32-36.95,10.4-44,3.52-1.32,6.3-4.87,9.13-7.69,8.81-8.8,16.34-19.44,26.47-26.25,16.83-11.32,35.29-20.24,53.09-30.12,2.23-1.24,4.54-2.5,6.97-3.17,24.82-6.82,48.9-5.61,72.15,6.38,7.91,4.08,16.14,9.76,24.51,10.29,24.74,1.56,46.92,10.91,68.59,20.97,8.32,3.87,14.02,3.26,20.96.04,25.23-11.68,52-16.14,79.51-16.55,23.35-.35,46.7-.07,70.05-.07.5-.78,1.01-1.57,1.51-2.35-3.65-4.38-6.69-11.61-11.08-12.55-8.88-1.91-14.85-4.85-15.63-14.2-12.44,0-24.15.92-35.65-.25-11.95-1.22-25.58.97-32.79-11.24-10.02,3.97-18.99,8.44-28.47,11.06-14.78,4.09-29.33,5.09-40.28-9.33-3.08-4.05-7.12-7.58-11.31-10.5-2.12-1.48-6.21-2.39-8.28-1.34-22.01,11.17-46.26,10.12-69.68,12.41-24.96,2.44-49.85,4.07-73.98,11.72-6.17,1.96-12.97,2.05-19.51,2.67-3.85.36-8.24-1.09-11.55.28-12.11,5.03-23.92,10.81-35.76,16.48-27.4,13.1-54.95,25.75-85.34,32.36,1.76.64,3.4,1.36,5.1,1.85,11.76,3.41,17.47,13.42,21.26,23.15,4.07,10.45-8.99,33.25-20.1,34.88-13.48,1.98-18.72,13.03-29.54,19.29,3.52,3.41,5.8,5.62,8.17,7.92,19.29-27.96,33.19-32,53.39-16.03ZM285.51,181.62c7.85,11.27,12.93,22.76,30.38,22.56,15.62-.18,31.24,5.75,46.99,8.06,3.86.57,9.53-1.25,12.17-4.05,10.58-11.2,20.58-22.98,30.26-34.98,12.96-16.08,25.71-32.08,44.06-42.76,13.87-8.07,27.03-17.36,40.41-26.26,2.38-1.58,4.25-3.92,8.14-7.6-10.27,0-17.71-.43-25.07.1-12.81.91-25.61,2.15-38.35,3.72-26.05,3.22-52.54,4.69-77.94,10.72-25.43,6.04-46.21,21.84-62.37,42.89,9.35,10.56,7.96,15.39-8.68,27.59ZM819.16,263.19c-10.77-4.3-21.76-6.51-29.94-12.53-9.73-7.16-17.66-5.91-26.85-1.07-8.83,4.66-17.74,9.17-28.23,14.59,14.51,12.15,26.72,22.38,39.23,32.87-.54,2.07-1.32,5.07-2.07,7.98,12.72,6.36,17.77,4.02,22.54-10.28-9.57-3.34-19.16-6.69-30.18-10.54,16.2-10.79,36.31-4.67,44.72,10.99,6.67-.35,13.69-2.52,19.22-.54,6.71,2.41,14.16,7.23,17.41,13.14,1.96,3.56-2.32,12.03-5.86,16.76-4.69,6.27-12.06,8.87-19.78,4.54-7.56-4.24-14.8-9.07-22.74-13.99-12,8.9-21.2,10.97-36.95-5.31-1.15-1.19-3.13-2.35-4.67-2.28-13.62.65-27.22,1.58-40.83,2.42-.21.92-.42,1.84-.64,2.76,20.2,6.5,35.86,23.69,59.14,23.01,1.1-.03,2.24,1.12,3.36,1.7,4.64,2.41,9.09,5.31,13.96,7.12,11.39,4.25,23.08,7.72,34.39,12.15,2.16.85,3.17,4.63,4.71,7.07-2.54,1.48-4.96,3.83-7.65,4.19-2.61.34-5.51-1.29-8.24-2.19-12.33-4.1-24.65-8.24-37.38-12.51-1.98,8.79-3.63,16.09-5.43,24.06,13.62.72,26.63-5.59,41.29,2.41-5.53,2.19-8.77,3.47-11.94,4.73,15.33,2.85,27.75,20.87,44.75,9.68-.72-4.46-3-9.15-1.64-12.22,2.64-5.93,7.67-3.19,12.36-1.27,2.34.95,6.41.85,8.15-.61,3.08-2.6,4.98-6.6,7.38-10.01-3.62-1.4-7.14-3.21-10.88-4.05-1.97-.44-4.41,1.47-6.47,1.16-2.89-.43-5.63-1.92-8.43-2.96,1.34-2.54,2.08-6.5,4.12-7.34,5.98-2.45,12.47-3.66,19.5-5.56-.08-1.35-.34-4.18-.42-7.01-.8-26.64-6.03-50.47-35.24-61.03-6.69-2.42-6.57-8.98.16-12.28,11.07-5.42,15.61-15.47,21.21-25.07-10.89-6.9-14.3-6.19-15.72,4.81-2.37,18.3-19.8,22.71-28.15,35.31-.71-.52-1.43-1.04-2.14-1.55,3.72-7.27,7.44-14.54,10.86-21.23ZM388.66,215.08s.85.64,1.75.72c23.86,2.1,47.71,4.36,71.61,5.88,2.49.16,6.44-3.66,7.69-6.51,5.41-12.35,12.38-23.14,23.72-31.01,1.87-1.29,2.37-5.6,2.28-8.48-.46-14.95-1.82-29.9-1.75-44.84.02-5.53,3.08-11.04,4.43-15.48-47.59,20.49-82.11,56.14-109.73,99.71ZM875.61,170.67c-8.23-7.26-15.19-15.05-23.67-20.49-13.41-8.6-27.95-15.42-41.79-23.38-14.95-8.6-29.96-15.52-48.07-11.13-15.51,3.77-30.24,8.88-43.83,17.74,6.83,5.53,12.56,10.74,18.89,15.07,4.02,2.75,8.98,5.94,13.45,5.85,13.09-.27,23.77,3.57,31.44,13.84,39.55-5.9,59.07-3.73,73.74,24.25,7.16-7.86,13.95-15.31,19.83-21.76ZM480.64,221.54c17.15,4.85,33.26,9.61,49.47,13.92,9.77,2.6,19.9,3.95,29.54,6.92,9.74,2.99,19.17,7.06,28.54,11.1,4.62,1.99,9.54,4.24,13.05,7.66,11.32,11.05,14.79,10.76,22.09-3.99-3.35-3.04-6.79-6.37-10.46-9.42-10.59-8.81-21.25-17.53-31.91-26.24-8.29-6.77-15.9-14.81-25.14-19.87-10.28-5.63-18.9-11.76-22.38-22.72-7.48,1.35-14.37,2.59-19.52,3.52-4.02,4.08-6.63,8.28-10.42,10.28-12.28,6.47-18.54,17.14-22.87,28.84ZM996.32,208.3c.7,2.77.98,3.99,1.32,5.18.27.92.48,1.9.96,2.71,13.36,22.41,32.73,35.09,59.02,37.39,20.7,1.81,41.33,4.43,62.11,6.71-.47-9.97-1.18-20.17-1.38-30.38-.31-16.46-5.13-20.77-21.6-19.61-14.41,1.01-28.88,2.31-43.28,1.94-18.61-.48-37.18-2.49-57.15-3.95ZM610.52,142.66c-1.43-3.17-2.63-5.46-3.51-7.86-1.67-4.55-1.88-10.65-5.04-13.38-3.78-3.26-10.11-5.26-15.19-5-18.67.98-34.96-5.06-50.94-13.76-3.25-1.77-9.47-1.17-12.81.84-11.89,7.17-13.87,20.21-18.2,33.08,11.86-7.39,27.35-7.55,35.91-1.11,10.4,7.83,12.54,17.34,7.67,33.44-.54,1.78-.57,3.76-.56,5.65.09,13.19,11.17,14.19,17.72,17.48,9.45-8.11,17.8-15.27,26.96-23.13-1.57-12.29,4.18-21.59,17.99-26.26ZM826.31,42.69c5.36-1.57,11.18-2.27,15.98-4.87,12.71-6.87,26.22-7.03,40.13-7.53,14.19-.51,24.13,4.76,31.59,16.27,1.27,1.96,3.24,3.67,5.25,4.92,5.8,3.63,12.09,6.56,17.61,10.54,5.37,3.87,9.48,11.41,15.14,12.6,14.62,3.08,28.87.07,40.68-9.17-13.41-9.58-27.15-17.91-39.04-28.35-9.1-7.99-17.7-15.38-30.05-17.36-11.93-1.92-23.98-6.93-35.61-6-23.45,1.86-43.05,14.67-61.69,28.95ZM742.2,239.21c.76,1.15,1.53,2.3,2.29,3.45,2.82-.76,5.9-1.03,8.42-2.37,7.17-3.81,13.71-9.14,21.22-11.92,17.57-6.5,35.52-11.99,53.4-17.64,9.5-3,16.89-14.61,12.16-20.84-3.15-4.14-8.05-9.21-12.56-9.63-13.89-1.3-27.97-.72-41.97-.43-1.99.04-4.55,2.08-5.8,3.9-7.73,11.26-18.28,18.38-31.26,22.14,1.16,3.63,2.3,7.18,3.44,10.71,59.33-17.86,63.13-18.53,76-13.03-1.82,1.15-3.23,2.46-4.89,3.03-23.29,7.9-46.7,15.46-69.86,23.75-4.07,1.46-7.09,5.84-10.59,8.88ZM763,349.15c-8.18-3.43-15.96-5.82-22.86-9.76-13.82-7.9-27.1-16.75-40.77-24.94-2-1.2-4.88-.91-7.36-1.31-.63.95-1.26,1.91-1.89,2.86,10.65,16.28,21.42,32.49,31.8,48.94,1.43,2.26.37,5.96,1.41,8.64.87,2.26,3,5.59,4.75,5.7,9.26.57,18.57.27,28.54.27,2.18-8.6,4.34-16.86,6.34-25.16.36-1.49.05-3.15.05-5.22ZM500.33,395.74c-13.09-2.63-29.79,5.81-35.35,17.68-1.01,2.17-2.84,4.12-4.68,5.71-7.67,6.64-15.76,12.83-23.09,19.82-1.85,1.77-2.68,8.11-1.88,8.55,3.3,1.82,7.43,2.96,11.19,2.8,2.48-.11,4.68-3.26,7.3-4.35,4.21-1.76,9.5-5.09,12.77-3.8,3.5,1.38,5.17,7.35,7.98,11.85,7.85-6.04,19.97-9.68,22.38-21.89,2.31-11.64,2.3-23.75,3.36-36.37ZM690.49,162.42c4.99,5.43,10.38,10.92,15.36,16.77,8.66,10.17,8.3,25.18.55,34.55-5.06,6.13-8.71,13.42-13,20.19l1.5.35c13.21-8.7,26.41-17.4,40.39-26.6-3.16-13.4-11.89-28.97,1.79-43.99-10.17-7.79-19.31-14.8-28.15-21.57-6.34,6.97-12.28,13.51-18.44,20.29ZM791.87,103.91c34.66,14.94,68.27,31.37,93.28,60.41,12.53-7,23.95-13.38,38.33-21.41-17.49-5.82-32.1-11.1-46.97-15.5-10.66-3.16-22.35-3.61-32.38-8.01-16.79-7.36-32.86-16.2-52.25-15.48ZM728.69,407.98c.22-.96.44-1.92.66-2.88-5.15-6.49-10.31-12.98-15.16-19.09-3.31,1.52-6.44,2.95-9.58,4.39-.51-.69-1.03-1.38-1.54-2.06,2.93-5.24,5.86-10.48,8.2-14.67-10.43-17.43-20.72-34.64-30.87-51.61-3.06,15.24-6.21,30.95-9.52,47.44,14.75,6.43,29.71,14.78,30.79,34.61,9.42,1.35,18.22,2.61,27.02,3.87ZM783.81,71.89c39.91-4.32,79.82-8.64,120.49-13.05-2.63-11.57-8.51-15.99-16.89-16.5-12.86-.79-25.47-.29-37.71,5.41-8.31,3.87-17.52,6.53-26.6,7.84-14.78,2.13-29.01,4.59-39.29,16.3ZM736.29,219.15c-25.38,18.38-48.98,35.51-66.51,60.68,2.15,3.47,4.58,7.41,7.87,12.73,10.38-7.32,20.44-14.09,30.11-21.36,6.92-5.2,15.75-9.85,19.39-16.96,4.99-9.72,5.86-21.55,9.13-35.1ZM475.94,235.27c1.12,1.79,2.25,3.58,3.37,5.37-3.87,1.6-7.69,3.31-11.61,4.78-8.99,3.37-17.84,7.34-27.09,9.81-40.56,10.82-76.18,32.17-114.42,53.09,7.38,0,13.75,1.76,18.35-.35,11.47-5.26,21.8-12.99,33.28-18.21,4.23-1.92,11.18-1.09,15.51,1.16,7.93,4.1,12.47,1.65,18.31-3.85,11.64-10.96,22.85-23.63,36.74-30.62,16.9-8.51,36.38-11.89,54.56-17.43-8.3-1.15-17.65-2.44-27-3.74ZM660.93,424.06c5.39-.78,9.19-1.36,13-1.86,11.32-1.5,19.46-14.73,13.4-24.3-4.61-7.28-11.85-13.47-19.22-18.06-2.07-1.29-8.75,4.77-13.28,7.51-3.29,1.99-6.92,3.66-9.66,6.26-2.96,2.81-7.38,6.81-7.03,9.81.67,5.76,1.77,13,10.97,13.12,2.63.03,5.24,3.1,7.83,4.81,1.71,1.13,3.39,2.3,4,2.71ZM636.14,319.25c-4.85-1.47-8.78-3.43-12.83-3.73-7.12-.53-12.92-.1-16.73-9.08-5.09-11.99-25.52-13.73-34.97-4.45-6.22,6.1-6.37,11.74.39,17.06,6.02,4.74,12.69,8.66,19.07,12.94l.5-3.08c8.85,1.12,17.7,2.24,27.53,3.48,3.62-2.79,8.97-6.91,17.05-13.14ZM236.83,354.76c-41.24,29.76-75.24,62.55-99.54,105.27,1.9,2.55,4.3,5.77,8.67,11.65,15.25-22.96,29.31-44.41,43.67-65.66,10.36-15.34,20.38-31.29,41.52-34.29,1.51-4.51,3.11-9.29,5.68-16.97ZM607.95,387.78c.67-17.29,7.97-33.96-3.41-48.83-13.66,11.74-26.37,22.67-39.77,34.19,8.73,3.69,14.45,12.93,24.86,6.93,1.06-.61,3.52,1.04,5.26,1.8,4.04,1.76,8.03,3.63,13.06,5.91ZM677.01,173.62c-11.87.41-16.98,5.37-16.65,16.17.26,8.43,8.95,19.26,15.35,19.11,20.65-.47,24-2.31,23.56-12.95-.42-10.17-12.86-22.65-22.26-22.33ZM662.23,358.77c2.1-16.41,4-31.62,6.01-46.82.94-7.14-2.88-10.26-9.21-10-6.48.27-12.9,1.68-21.15,2.85,9.63,9.48,10.61,18.68,7.41,28.93-.62,2,.12,5.19,1.45,6.89,4.65,5.99,9.82,11.58,15.5,18.14ZM687.53,300.43c21.31-1.7,44.11-3.52,67.14-5.36-10.11-7.77-20.02-15.39-28.92-22.24-13.41,9.69-26.36,19.04-38.21,27.6ZM601.45,171.25c2.86,3.29,6.77,5.71,7.15,8.59,1.16,8.76,7.02,8.49,12.61,7.02,13.45-3.55,16.1-14.99,6.67-26.69-6.92-8.58-18.5-7.35-23.09,2.54-1.48,3.18-2.57,6.55-3.34,8.54ZM532.38,176.63c2.37-6.41,5.75-11.72,5.92-17.14.15-4.68-2.17-12.08-5.52-13.6-4.91-2.24-13.8-2.7-17.31.33-9.05,7.8-5.15,22.04,6.01,26.73,3.19,1.34,6.57,2.24,10.9,3.69ZM630.23,246.09c14.01-8.6,17.29-13.79,14.36-24.27-.61-2.18-4.1-4.66-6.56-5.05-10.76-1.68-14.24,1.5-21.67,18.21,4.47,3.58,8.94,7.16,13.87,11.1ZM477.06,317.44c-1.22-7.24-.81-17.31-3.48-18.21-6.86-2.3-15.42-1.79-22.61.16-3.42.93-5.26,7.69-8.9,13.55,12.59,1.62,21.99,2.83,34.99,4.5ZM769.56,172.28c-6.67-2.75-11.85-9.98-19.78-3.41-9.83,8.14-10.41,16.61-1.2,32,7.13-9.72,13.77-18.76,20.98-28.59ZM605.01,198.23c-4.05-5.65-7.72-10.79-11.37-15.89-20.24,16.9-16.21,16.34-.19,33.24,3.87-5.81,7.78-11.67,11.56-17.35ZM536.38,288.22c1.28.08,2.56.15,3.83.23-1.56-3.23-2.37-8.25-4.85-9.31-4.82-2.04-10.83-3.13-15.89-2.17-4.27.81-8.66,4.46-11.45,8.05-1.41,1.81-.25,6.85,1.42,9.3.81,1.19,5.55.19,8.33-.53,6.26-1.62,12.41-3.68,18.6-5.57ZM573.4,409.38c12.41,5.23,21.41-1.29,30.67-7.56-12.35-12.14-17.21-10.97-30.67,7.56ZM808.58,304.89c3.96,9.03,10.01,12.11,17.27,12.54,2.15.13,4.49-2.73,6.74-4.22-1.58-2.04-2.85-5.39-4.81-5.86-5.71-1.37-11.7-1.59-19.2-2.45ZM1177.9,303.54c-5.49,1.61-10.43,3.07-16.63,4.89,3.46,4.95,6.23,8.91,9.17,13.13,2.65-6.39,4.84-11.69,7.46-18.02Z"/>
    <path class="cls-1" d="M283.83,65.83c20.05-9,40.89-13.93,63.01-11.66,1.82.19,3.4,2.67,5.09,4.08-2.08.98-4.43,3.16-6.19,2.75-21.2-4.82-41.43,1.07-61.91,4.82Z"/>
  </g>
</svg>